<?xml version="1.0" encoding="UTF-8"?><svg id="a" xmlns="http://www.w3.org/2000/svg" viewBox="0 0 960 403"><g><path d="M50.59,381.8v-.16c0-11.55,9.02-21.36,20.96-21.36,7.75,0,12.58,3.24,16.37,7.28l-4.03,4.27c-3.24-3.4-6.88-6.17-12.42-6.17-8.31,0-14.63,7.04-14.63,15.82v.16c0,8.86,6.49,15.9,15.03,15.9,5.22,0,9.25-2.61,12.5-6.09l3.88,3.64c-4.11,4.59-9.02,7.91-16.69,7.91-11.94,0-20.96-9.73-20.96-21.2Z" fill="#fff"/><path d="M177.31,361.16h6.09v10.68c3.01-6.8,8.94-11.71,16.69-11.39v6.57h-.47c-8.94,0-16.22,6.41-16.22,18.75v16.29h-6.09v-40.9Z" fill="#fff"/><path d="M304.74,397.7c5.62,0,9.57-2.29,12.89-5.77l3.8,3.4c-4.11,4.59-9.1,7.67-16.85,7.67-11.23,0-20.41-8.62-20.41-21.36,0-11.87,8.31-21.36,19.62-21.36,12.1,0,19.06,9.65,19.06,21.67,0,.55,0,1.19-.08,2.14h-32.43c.87,8.62,7.2,13.61,14.4,13.61Zm11.94-18.51c-.71-7.44-4.98-13.76-13.05-13.76-7.04,0-12.42,5.85-13.29,13.76h26.34Z" fill="#fff"/><path d="M409.55,390.19v-.16c0-8.78,7.12-13.37,17.48-13.37,5.22,0,8.86,.71,12.5,1.74v-1.27c0-7.28-4.43-11.07-12.1-11.07-4.83,0-8.62,1.19-12.42,2.93l-1.82-4.98c4.51-2.06,8.86-3.48,14.87-3.48s10.28,1.58,13.21,4.51,4.27,6.8,4.27,12.02v25h-6.01v-6.09c-2.85,3.64-7.51,6.96-14.71,6.96-7.67,0-15.27-4.35-15.27-12.74Zm30.06-3.16v-3.8c-3.01-.87-6.96-1.74-11.94-1.74-7.59,0-11.94,3.32-11.94,8.23v.16c0,5.14,4.75,8.15,10.28,8.15,7.51,0,13.61-4.51,13.61-11Z" fill="#fff"/><path d="M539.2,391.21v-24.68h-5.7v-5.38h5.7v-12.34h6.09v12.34h12.97v5.38h-12.97v23.89c0,4.98,2.77,6.8,6.88,6.8,2.06,0,3.8-.4,5.93-1.42v5.22c-2.14,1.11-4.43,1.74-7.36,1.74-6.57,0-11.55-3.24-11.55-11.55Z" fill="#fff"/><path d="M648.28,345.49h6.96v6.72h-6.96v-6.72Zm.4,15.66h6.09v40.9h-6.09v-40.9Z" fill="#fff"/><path d="M743.99,361.16h6.72l13.76,33.93,13.84-33.93h6.57l-17.8,41.21h-5.38l-17.72-41.21Z" fill="#fff"/><path d="M889.22,397.7c5.62,0,9.57-2.29,12.89-5.77l3.8,3.4c-4.11,4.59-9.1,7.67-16.85,7.67-11.23,0-20.41-8.62-20.41-21.36,0-11.87,8.31-21.36,19.62-21.36,12.1,0,19.06,9.65,19.06,21.67,0,.55,0,1.19-.08,2.14h-32.43c.87,8.62,7.2,13.61,14.4,13.61Zm11.94-18.51c-.71-7.44-4.98-13.76-13.05-13.76-7.04,0-12.42,5.85-13.29,13.76h26.34Z" fill="#fff"/></g><path d="M223.92,36.99c19.2,14.92,28.81,35.28,28.81,61.08,0,9.95-1.31,18.81-3.92,26.57-2.63,7.77-6,14.54-10.16,20.29-4.16,5.75-9.09,10.81-14.78,15.16s-11.46,8.08-17.31,11.18c9.56,3.41,18.27,7.36,26.14,11.85,7.87,4.49,14.66,9.83,20.37,16.03,5.7,6.2,10.1,13.55,13.18,22.07,3.08,8.52,4.63,18.35,4.63,29.51,0,14.56-2.87,27.41-8.59,38.56-5.73,11.16-13.86,20.52-24.39,28.12-10.53,7.59-23.24,13.32-38.1,17.19-14.87,3.87-31.29,5.8-49.25,5.8H0V14.6H145.88c32.83,0,58.85,7.46,78.04,22.39m-44.68,104.39c11.13-7.33,16.7-18.64,16.7-33.93,0-13.41-4.87-23.79-14.62-31.12-9.74-7.33-23.89-11-42.44-11H56.79v87.04h77.93c18.55,0,33.39-3.67,44.53-11m18.15,136.89c11.14-7.6,16.71-18.85,16.71-33.75,0-13.96-5.5-24.82-16.49-32.58-10.98-7.75-27.76-11.64-50.35-11.64H56.79v89.37h94.66c19.49,0,34.81-3.8,45.95-11.4" fill="#ffe400"/><path d="M433.31,340.4v-30.25c-8.38,9.94-19.08,18.31-32.11,25.14-13.03,6.82-28.86,10.24-47.48,10.24-11.79,0-22.96-1.63-33.51-4.89-10.55-3.26-19.78-8.07-27.69-14.43-7.92-6.36-14.28-14.27-19.09-23.74-4.81-9.46-7.21-20.4-7.21-32.81v-.93c0-13.34,2.48-24.97,7.44-34.91,4.96-9.93,11.87-18.15,20.71-24.67,8.84-6.52,19.39-11.4,31.65-14.66,12.25-3.26,25.51-4.89,39.79-4.89s27.53,.93,37.93,2.79c10.39,1.86,20.39,4.35,30.02,7.45v-6.05c0-17.06-5.2-30.09-15.59-39.1-10.4-8.99-25.36-13.49-44.92-13.49-13.96,0-26.38,1.39-37.23,4.19-10.86,2.79-21.88,6.52-33.04,11.17l-15.36-45.15c13.65-6.21,27.62-11.17,41.89-14.9,14.27-3.73,31.49-5.58,51.67-5.58,36.6,0,63.76,9.08,81.45,27.23,17.69,18.15,26.53,43.68,26.53,76.56v145.68h-55.85Zm1.4-104.26c-7.14-2.79-15.59-5.12-25.37-6.98-9.78-1.86-20.09-2.79-30.95-2.79-17.69,0-31.5,3.42-41.42,10.24-9.94,6.83-14.9,16.6-14.9,29.32v.93c0,11.8,4.58,20.79,13.73,27,9.15,6.21,20.4,9.31,33.74,9.31,9.31,0,17.92-1.24,25.83-3.72,7.92-2.48,14.82-5.97,20.71-10.48,5.89-4.49,10.47-9.93,13.73-16.29,3.25-6.35,4.89-13.42,4.89-21.18v-15.36Z" fill="#ffe400"/><path d="M678.13,301.77c-4.66,9.62-11.1,17.61-19.31,23.97-8.22,6.36-17.92,11.17-29.09,14.43-11.17,3.26-23.12,4.89-35.84,4.89-17.69,0-35.61-3.1-53.76-9.31-18.15-6.2-34.99-15.36-50.5-27.46l25.14-38.17c13.34,9.93,26.92,17.46,40.72,22.58,13.8,5.12,27.07,7.68,39.79,7.68s21.49-2.4,28.16-7.21c6.67-4.81,10-11.24,10-19.32v-.93c0-4.66-1.47-8.68-4.42-12.1-2.95-3.41-6.98-6.44-12.1-9.08-5.12-2.63-11.02-4.96-17.69-6.98-6.68-2.01-13.58-4.11-20.72-6.28-9-2.79-18.08-5.89-27.23-9.31-9.16-3.41-17.38-7.83-24.67-13.26-7.29-5.42-13.27-12.1-17.92-20.01-4.65-7.91-6.98-17.76-6.98-29.55v-.93c0-11.48,2.25-21.88,6.75-31.19,4.49-9.31,10.7-17.22,18.61-23.74,7.92-6.52,17.22-11.47,27.93-14.89,10.7-3.41,22.11-5.12,34.21-5.12,15.51,0,31.18,2.49,47.01,7.45,15.83,4.96,30.25,11.79,43.28,20.48l-22.33,40.03c-11.8-7.14-23.74-12.8-35.84-16.99-12.11-4.19-23.28-6.28-33.51-6.28-10.86,0-19.31,2.33-25.37,6.98-6.05,4.65-9.08,10.55-9.08,17.69v.93c0,4.35,1.55,8.15,4.65,11.4,3.1,3.26,7.22,6.21,12.34,8.84,5.11,2.64,11.01,5.12,17.69,7.45,6.67,2.33,13.57,4.58,20.71,6.75,9,2.79,17.99,6.05,27,9.77,9,3.72,17.14,8.31,24.43,13.73,7.29,5.43,13.27,12.03,17.92,19.78,4.65,7.76,6.98,17.22,6.98,28.39v.93c0,13.04-2.33,24.36-6.98,33.98" fill="#ffe400"/><polygon points="916.89 340.4 851.73 340.4 777.73 234.29 743.28 270.12 743.28 340.4 686.5 340.4 686.5 .64 743.28 .64 743.28 203.56 845.21 94.66 913.64 94.66 815.89 194.72 916.89 340.4" fill="#ffe400"/></svg>