<svg id="Layer_1" data-name="Layer 1" xmlns="http://www.w3.org/2000/svg" viewBox="0 0 841.89 595.28"><defs><style>.cls-1{fill:#4b5360;}.cls-2{fill:#ffe500;}</style></defs><title>Bask Logo-01</title><path class="cls-1" d="M137.29,429.74l-18.83,41.6h4.78l4.9-10.91h22.48l4.84,10.91h5l-18.83-41.6ZM130,456.3l9.44-21.07,9.39,21.07Z"/><path class="cls-1" d="M198.83,444.35a14.26,14.26,0,0,0-4.69-3.1,14.08,14.08,0,0,0-5.34-1.06,12.33,12.33,0,0,0-3.86.56,13.49,13.49,0,0,0-3.16,1.47,13.27,13.27,0,0,0-2.57,2.16,23.22,23.22,0,0,0-2.09,2.59v-6.14h-4.55v39.95h4.55V465.5a18.06,18.06,0,0,0,2,2.48,13.56,13.56,0,0,0,2.57,2.07A13.25,13.25,0,0,0,188.8,472a13.89,13.89,0,0,0,5.4-1.09,14.22,14.22,0,0,0,4.66-3.13,15.37,15.37,0,0,0,3.28-5,18.86,18.86,0,0,0,0-13.45A15.06,15.06,0,0,0,198.83,444.35Zm-1,16.73a11,11,0,0,1-2.31,3.7,9.67,9.67,0,0,1-3.42,2.29,11,11,0,0,1-4.16.79,10.28,10.28,0,0,1-4.1-.85,11.55,11.55,0,0,1-3.54-2.38,11.23,11.23,0,0,1-2.48-3.72,12.54,12.54,0,0,1-.91-4.85,12.24,12.24,0,0,1,.91-4.81,11.35,11.35,0,0,1,2.48-3.7,11.55,11.55,0,0,1,3.54-2.38,10.28,10.28,0,0,1,4.1-.85,10.46,10.46,0,0,1,4.13.82,10.14,10.14,0,0,1,3.43,2.38,11.58,11.58,0,0,1,2.33,3.73,13.37,13.37,0,0,1,.85,4.87A13.79,13.79,0,0,1,197.86,461.08Z"/><path class="cls-1" d="M242.73,444.35a14.35,14.35,0,0,0-10-4.16,12.39,12.39,0,0,0-3.87.56,13.68,13.68,0,0,0-3.16,1.47,13.52,13.52,0,0,0-2.56,2.16A23.32,23.32,0,0,0,221,447v-6.14h-4.55v39.95H221V465.5a18.14,18.14,0,0,0,2,2.48,13.82,13.82,0,0,0,2.56,2.07,13.25,13.25,0,0,0,7.09,1.94,13.85,13.85,0,0,0,5.39-1.09,14.12,14.12,0,0,0,4.66-3.13,15.39,15.39,0,0,0,3.29-5,19,19,0,0,0,0-13.45A15.08,15.08,0,0,0,242.73,444.35Zm-1,16.73a11,11,0,0,1-2.3,3.7,9.67,9.67,0,0,1-3.42,2.29,11.07,11.07,0,0,1-4.16.79,10.21,10.21,0,0,1-4.1-.85,11.55,11.55,0,0,1-3.54-2.38,10.93,10.93,0,0,1-2.48-3.72,12.54,12.54,0,0,1-.91-4.85,12.24,12.24,0,0,1,.91-4.81,11,11,0,0,1,2.48-3.7,11.55,11.55,0,0,1,3.54-2.38,10.21,10.21,0,0,1,4.1-.85,10.5,10.5,0,0,1,4.13.82,10,10,0,0,1,3.42,2.38,11.24,11.24,0,0,1,2.33,3.73,13.16,13.16,0,0,1,.86,4.87A13.58,13.58,0,0,1,241.76,461.08Z"/><rect class="cls-1" x="260.79" y="428.27" width="4.54" height="43.08"/><path class="cls-1" d="M293.65,466.27l-11.09-25.44h-5l13.87,30.39a12.4,12.4,0,0,1-2.78,4.49,5.13,5.13,0,0,1-3.48,1.24,10.78,10.78,0,0,1-2.57-.27,10.11,10.11,0,0,1-2.21-.85l-1.53,3.6a15.26,15.26,0,0,0,3.06,1.15,14,14,0,0,0,3.43.38,8.94,8.94,0,0,0,5.81-1.94c1.59-1.3,3-3.53,4.34-6.67l12.8-31.52h-4.84Z"/><rect class="cls-1" x="320.62" y="440.83" width="4.54" height="30.51"/><rect class="cls-1" x="320.33" y="429.15" width="5.19" height="5.01"/><path class="cls-1" d="M364,443.58a10.35,10.35,0,0,0-3.66-2.51,12.9,12.9,0,0,0-4.93-.88,10.93,10.93,0,0,0-6.43,1.74,14.12,14.12,0,0,0-4,4.22v-5.32h-4.55v30.51H345V453.88a10.86,10.86,0,0,1,.67-3.9,8.9,8.9,0,0,1,1.92-3,8.53,8.53,0,0,1,2.92-1.94,9.46,9.46,0,0,1,3.63-.68,7.91,7.91,0,0,1,6.26,2.47,9.87,9.87,0,0,1,2.18,6.73v17.82h4.54V452.4a14.79,14.79,0,0,0-.79-5A11.08,11.08,0,0,0,364,443.58Z"/><path class="cls-1" d="M406,446.33a18.75,18.75,0,0,0-2.12-2.37,12.89,12.89,0,0,0-2.62-1.94,13.41,13.41,0,0,0-3.25-1.33,14.38,14.38,0,0,0-3.93-.5,14.66,14.66,0,0,0-5.31,1,14.3,14.3,0,0,0-4.6,2.86A14.06,14.06,0,0,0,381,448.6a14.49,14.49,0,0,0-1.21,6,14,14,0,0,0,4.42,10.53,14,14,0,0,0,4.58,2.83,14.89,14.89,0,0,0,5.33,1,12.76,12.76,0,0,0,7.09-1.88,19.34,19.34,0,0,0,4.89-4.55v3.6c0,3.58-1,6.29-3,8.11A11.5,11.5,0,0,1,395,477a19.1,19.1,0,0,1-6.2-1,22.75,22.75,0,0,1-5.54-2.89l-2.06,3.53a23.39,23.39,0,0,0,6.55,3.19A24.76,24.76,0,0,0,395,480.9a20.41,20.41,0,0,0,6.41-.94,13.29,13.29,0,0,0,4.89-2.81,12.14,12.14,0,0,0,3.13-4.63,17.58,17.58,0,0,0,1.09-6.49v-25.2H406Zm-.76,12.53a10.4,10.4,0,0,1-2.5,3.28,11.64,11.64,0,0,1-3.57,2.1,12.41,12.41,0,0,1-4.2.73,11.43,11.43,0,0,1-4-.73,10.13,10.13,0,0,1-3.36-2.13,10.24,10.24,0,0,1-3.16-7.58,10.71,10.71,0,0,1,.83-4.28,9.64,9.64,0,0,1,2.27-3.28,9.75,9.75,0,0,1,3.37-2.06,11.49,11.49,0,0,1,4.09-.71,12.18,12.18,0,0,1,4.2.74,11.61,11.61,0,0,1,3.57,2.09,10.4,10.4,0,0,1,2.5,3.28,10.19,10.19,0,0,1,0,8.55Z"/><path class="cls-1" d="M467.05,466.62a10.27,10.27,0,0,1-5.22,1.3,10.78,10.78,0,0,1-4.46-.91,11,11,0,0,1-3.54-2.53,12,12,0,0,1-2.36-3.8,12.59,12.59,0,0,1-.85-4.65,12.76,12.76,0,0,1,.83-4.62,11.91,11.91,0,0,1,2.29-3.77,10.83,10.83,0,0,1,3.49-2.53,10.38,10.38,0,0,1,4.31-.91,9.69,9.69,0,0,1,5.28,1.36,21.8,21.8,0,0,1,4,3.24l3-3.18a23.51,23.51,0,0,0-2.31-2.13,14.58,14.58,0,0,0-2.71-1.74,14.82,14.82,0,0,0-3.25-1.15,17.12,17.12,0,0,0-4-.41,15.2,15.2,0,0,0-11.17,4.72,15.62,15.62,0,0,0-3.28,5.1,16.28,16.28,0,0,0-1.18,6.17,16,16,0,0,0,1.18,6.13,15.53,15.53,0,0,0,8.23,8.47,15.14,15.14,0,0,0,6.22,1.27,14.4,14.4,0,0,0,7.23-1.67,20.77,20.77,0,0,0,5.23-4.29l-2.89-2.71A17.75,17.75,0,0,1,467.05,466.62Z"/><path class="cls-1" d="M495.7,442.58a13.85,13.85,0,0,0-2.83,2.74,16.66,16.66,0,0,0-2.07,3.48v-8h-4.54v30.51h4.54V459.19a17.59,17.59,0,0,1,.95-6.05,12.63,12.63,0,0,1,2.59-4.4,10.63,10.63,0,0,1,3.86-2.65,12.55,12.55,0,0,1,4.7-.89h.35v-4.89a12.26,12.26,0,0,0-4.07.52A12.11,12.11,0,0,0,495.7,442.58Z"/><path class="cls-1" d="M536.83,444.91a13.23,13.23,0,0,0-4.49-3.46,14.79,14.79,0,0,0-11.88,0,14.26,14.26,0,0,0-4.64,3.4,15.64,15.64,0,0,0-3,5.07,17.82,17.82,0,0,0-1.09,6.23,16.71,16.71,0,0,0,1.23,6.49,15.37,15.37,0,0,0,3.3,5,14.57,14.57,0,0,0,4.85,3.25,15.21,15.21,0,0,0,5.9,1.15,15.55,15.55,0,0,0,7.32-1.56,18.7,18.7,0,0,0,5.25-4.16l-2.83-2.54a16.12,16.12,0,0,1-4.16,3.13,11.8,11.8,0,0,1-5.46,1.18,11,11,0,0,1-3.83-.68,10.18,10.18,0,0,1-3.31-2,10.58,10.58,0,0,1-2.42-3.24,12.67,12.67,0,0,1-1.18-4.4h24.14a5.4,5.4,0,0,0,.06-.77v-.65a20.58,20.58,0,0,0-.95-6.31A14.76,14.76,0,0,0,536.83,444.91Zm-20.48,9.5a13.85,13.85,0,0,1,1.06-4.13,11.62,11.62,0,0,1,2.11-3.28,9.71,9.71,0,0,1,3-2.18,8.63,8.63,0,0,1,3.7-.8,9,9,0,0,1,4,.86,9.24,9.24,0,0,1,2.93,2.27,10.57,10.57,0,0,1,1.87,3.3,15.8,15.8,0,0,1,.86,4Z"/><path class="cls-1" d="M564.74,440.43a23.8,23.8,0,0,0-6,.67,30.7,30.7,0,0,0-5.13,1.86l1.35,3.72a28.13,28.13,0,0,1,4.34-1.63,18.32,18.32,0,0,1,4.93-.62,9.82,9.82,0,0,1,6.69,2.1c1.6,1.4,2.39,3.47,2.39,6.22v1.07a37.93,37.93,0,0,0-4.24-.95,33.38,33.38,0,0,0-5.14-.35,20.31,20.31,0,0,0-5.28.65,12.76,12.76,0,0,0-4.13,1.89,8.41,8.41,0,0,0-2.68,3.1,9.14,9.14,0,0,0-1,4.27,8.65,8.65,0,0,0,1,4.19,9.19,9.19,0,0,0,2.6,3,11.27,11.27,0,0,0,3.66,1.8,15,15,0,0,0,4.16.59,13.08,13.08,0,0,0,6.76-1.59,14.66,14.66,0,0,0,4.27-3.66v4.6h4.37V452.69q0-6.07-3.36-9.17C572.12,441.45,568.91,440.43,564.74,440.43Zm8.67,19.7a7.06,7.06,0,0,1-.79,3.34,8.17,8.17,0,0,1-2.17,2.59,10.65,10.65,0,0,1-3.24,1.71,12.23,12.23,0,0,1-4,.62,9.94,9.94,0,0,1-2.91-.41,7.64,7.64,0,0,1-2.44-1.21,6,6,0,0,1-1.68-1.92,5.32,5.32,0,0,1-.62-2.6,5.5,5.5,0,0,1,2.3-4.65,10.84,10.84,0,0,1,6.58-1.72,27,27,0,0,1,5,.42c1.47.27,2.78.56,3.91.88Z"/><path class="cls-1" d="M598,431.63h-4.54v9.2h-4.25v4h4.25v18.41a10.86,10.86,0,0,0,.65,3.95,6.85,6.85,0,0,0,1.8,2.69,7,7,0,0,0,2.74,1.5,11.85,11.85,0,0,0,3.43.47,13,13,0,0,0,3-.32,10.16,10.16,0,0,0,2.5-1v-3.89a9,9,0,0,1-4.43,1.06,5.78,5.78,0,0,1-3.71-1.12c-1-.74-1.42-2.06-1.42-3.95V444.85h9.68v-4H598Z"/><rect class="cls-1" x="620.5" y="429.15" width="5.19" height="5.01"/><rect class="cls-1" x="620.8" y="440.83" width="4.54" height="30.51"/><polygon class="cls-1" points="652.9 466.15 642.63 440.83 637.62 440.83 650.83 471.58 654.85 471.58 668.13 440.83 663.22 440.83 652.9 466.15"/><rect class="cls-1" x="680.39" y="440.83" width="4.54" height="30.51"/><rect class="cls-1" x="680.11" y="429.15" width="5.19" height="5.01"/><path class="cls-1" d="M706.36,431.63h-4.54v9.2h-4.26v4h4.26v18.41a10.65,10.65,0,0,0,.65,3.95,6.84,6.84,0,0,0,1.79,2.69,7.14,7.14,0,0,0,2.75,1.5,11.78,11.78,0,0,0,3.42.47,13,13,0,0,0,3-.32,10,10,0,0,0,2.5-1v-3.89a9,9,0,0,1-4.42,1.06,5.76,5.76,0,0,1-3.71-1.12c-.95-.74-1.42-2.06-1.42-3.95V444.85H716v-4h-9.67Z"/><path class="cls-1" d="M751.61,440.83l-9.79,25.44-11.09-25.44h-5l13.87,30.39a12.54,12.54,0,0,1-2.77,4.49,5.16,5.16,0,0,1-3.49,1.24,10.9,10.9,0,0,1-2.57-.27,10.11,10.11,0,0,1-2.21-.85l-1.53,3.6a15.34,15.34,0,0,0,3.07,1.15,13.88,13.88,0,0,0,3.42.38,8.94,8.94,0,0,0,5.81-1.94c1.6-1.3,3-3.53,4.34-6.67l12.81-31.52Z"/><path class="cls-2" d="M359.24,184.51q-22.44,0-38.31,4.14a192.26,192.26,0,0,0-31.06,11l11.39,33.47a180.4,180.4,0,0,1,24.5-8.28,111.28,111.28,0,0,1,27.61-3.11q21.75,0,33.3,10t11.56,29v4.49A171.85,171.85,0,0,0,376,259.74a162.82,162.82,0,0,0-28.13-2.07,114.37,114.37,0,0,0-29.51,3.63,68.94,68.94,0,0,0-23.47,10.87,50.43,50.43,0,0,0-15.36,18.29,49.41,49.41,0,0,0-2.36,5.63,58.53,58.53,0,0,0-3.14-15,47.86,47.86,0,0,0-9.77-16.37,62.7,62.7,0,0,0-15.1-11.88,121.39,121.39,0,0,0-19.38-8.79,93.55,93.55,0,0,0,12.83-8.29,53.8,53.8,0,0,0,11-11.24,56.45,56.45,0,0,0,7.53-15A61.63,61.63,0,0,0,264,189.8q0-28.7-21.36-45.29t-57.87-16.6H76.59V369.49H188.22a144.83,144.83,0,0,0,36.51-4.3q16.54-4.31,28.26-12.75a58.4,58.4,0,0,0,18.09-20.85,54.78,54.78,0,0,0,3.25-7.88,49.57,49.57,0,0,0,5,17.65A53.11,53.11,0,0,0,293.49,359,61.21,61.21,0,0,0,314,369.66a83.56,83.56,0,0,0,24.84,3.63q20.72,0,35.21-7.59a78.06,78.06,0,0,0,23.81-18.64v22.43H439.3v-108q0-36.57-19.67-56.77T359.24,184.51Zm-240.54-19h60.88q20.63,0,31.47,8.15t10.84,23.08q0,17-12.39,25.15t-33,8.16H118.7ZM223,323.42q-12.39,8.46-34.07,8.45H118.7V265.61h67.09q25.13,0,37.33,8.63t12.23,24.16Q235.35,315,223,323.42Zm176-19.85a33.87,33.87,0,0,1-3.63,15.71,35.48,35.48,0,0,1-10.18,12.08,49.54,49.54,0,0,1-15.36,7.76,63.35,63.35,0,0,1-19.15,2.76q-14.85,0-25-6.9t-10.18-20v-.69q0-14.14,11-21.74t30.72-7.59A122.59,122.59,0,0,1,380.12,287a107,107,0,0,1,18.81,5.18Z"/><path class="cls-2" d="M566.13,279.24A84.22,84.22,0,0,0,548,269.06q-10-4.14-20-7.24-7.93-2.42-15.35-5a101.09,101.09,0,0,1-13.12-5.52,33.9,33.9,0,0,1-9.15-6.56,11.9,11.9,0,0,1-3.45-8.45v-.69q0-7.93,6.73-13.12t18.81-5.17A76.55,76.55,0,0,1,537.31,222a140.07,140.07,0,0,1,26.58,12.6l16.56-29.68a124.79,124.79,0,0,0-32.1-15.18,116,116,0,0,0-34.85-5.53,83.1,83.1,0,0,0-25.37,3.8,61.84,61.84,0,0,0-20.71,11,51.79,51.79,0,0,0-13.8,17.61,52.52,52.52,0,0,0-5,23.12v.69q0,13.11,5.17,21.91a49.6,49.6,0,0,0,13.29,14.84A73,73,0,0,0,485.37,287q10.17,3.8,20.19,6.9,7.94,2.41,15.36,4.66A77.87,77.87,0,0,1,534,303.75a29.5,29.5,0,0,1,9,6.73,13.26,13.26,0,0,1,3.28,9v.69a16.78,16.78,0,0,1-7.41,14.32q-7.43,5.35-20.89,5.35a84.83,84.83,0,0,1-29.5-5.69,121.54,121.54,0,0,1-30.2-16.74l-18.64,28.3A127.85,127.85,0,0,0,477.09,366a122.69,122.69,0,0,0,39.86,6.9,94.68,94.68,0,0,0,26.57-3.62,64.13,64.13,0,0,0,21.57-10.7,49.14,49.14,0,0,0,14.32-17.77q5.19-10.69,5.18-25.2V315q0-12.42-5.18-21A50.69,50.69,0,0,0,566.13,279.24Z"/><polygon class="cls-2" points="681.57 261.47 754.04 187.27 703.31 187.27 627.73 268.03 627.73 117.56 585.63 117.56 585.63 369.49 627.73 369.49 627.73 317.38 653.27 290.81 708.14 369.49 756.46 369.49 681.57 261.47"/></svg>