<?xml version="1.0" encoding="UTF-8"?><svg id="a" xmlns="http://www.w3.org/2000/svg" viewBox="0 0 960 858"><path id="b" d="M11.99,6.54h62.35c36.41,0,58.42,21.58,58.42,52.76v.44c0,35.32-27.47,53.63-61.69,53.63h-25.51v45.78H11.99V6.54Zm60.17,76.96c16.79,0,26.6-10.03,26.6-23.11v-.44c0-15.04-10.46-23.11-27.25-23.11h-25.94v46.65h26.6Z" fill="#fff"/><path id="c" d="M135.38,101.37v-.44c0-33.57,27.03-60.82,63.44-60.82s63,26.81,63,60.39v.44c0,33.57-27.03,60.82-63.44,60.82s-63-26.81-63-60.39Zm93.74,0v-.44c0-17.22-12.43-32.26-30.74-32.26s-30.3,14.61-30.3,31.83v.44c0,17.22,12.43,32.26,30.74,32.26s30.3-14.61,30.3-31.83Z" fill="#fff"/><path id="d" d="M263.34,42.29h33.57l18.75,70.85,22.02-71.29h28.56l22.24,71.5,19.18-71.07h32.92l-36.41,117.72h-29.87l-22.45-71.72-22.89,71.72h-29.65l-35.97-117.72Z" fill="#fff"/><path id="e" d="M441.88,101.37v-.44c0-33.35,23.76-60.82,57.77-60.82,39.02,0,56.9,30.3,56.9,63.44,0,2.62-.22,5.67-.44,8.72h-81.31c3.27,15.04,13.73,22.89,28.56,22.89,11.12,0,19.18-3.49,28.34-11.99l18.97,16.79c-10.9,13.52-26.6,21.8-47.74,21.8-35.1,0-61.04-24.63-61.04-60.39Zm82.4-9.81c-1.96-14.82-10.68-24.85-24.63-24.85s-22.67,9.81-25.29,24.85h49.92Z" fill="#fff"/><path id="f" d="M568.32,42.29h33.14v23.54c6.76-16.13,17.66-26.6,37.28-25.72v34.66h-1.74c-22.02,0-35.53,13.3-35.53,41.2v43.16h-33.14V42.29Z" fill="#fff"/><path id="g" d="M647.24,0h34.88V29.43h-34.88V0Zm.87,42.29h33.14v116.85h-33.14V42.29Z" fill="#fff"/><path id="h" d="M699.55,42.29h33.14v16.57c7.63-9.81,17.44-18.75,34.23-18.75,25.07,0,39.68,16.57,39.68,43.38v75.65h-33.14V93.96c0-15.7-7.41-23.76-20.06-23.76s-20.71,8.07-20.71,23.76v65.18h-33.14V42.29Z" fill="#fff"/><path id="i" d="M823.16,182.25l11.34-24.85c11.99,6.76,23.98,10.68,39.46,10.68,22.67,0,33.35-10.9,33.35-31.83v-5.67c-9.81,11.77-20.49,18.97-38.15,18.97-27.25,0-51.88-19.84-51.88-54.5v-.44c0-34.88,25.07-54.5,51.88-54.5,18.09,0,28.78,7.63,37.71,17.44v-15.26h33.14v90.47c0,20.93-5.01,36.19-14.82,46-10.9,10.9-27.69,15.7-50.36,15.7-18.97,0-36.84-4.36-51.67-12.21Zm84.15-87.2v-.44c0-15.91-12.43-27.03-28.56-27.03s-28.34,11.12-28.34,27.03v.44c0,16.13,12.21,27.03,28.34,27.03s28.56-11.12,28.56-27.03Z" fill="#fff"/><path id="j" d="M41.64,309.48v15.26H8.5V165.6H41.64v59.08c8.07-10.9,19.18-18.97,36.41-18.97,27.25,0,53.19,21.36,53.19,60.39v.44c0,39.02-25.51,60.39-53.19,60.39-17.66,0-28.56-8.07-36.41-17.44Zm56.46-42.95v-.44c0-19.4-13.08-32.26-28.56-32.26s-28.34,12.86-28.34,32.26v.44c0,19.4,12.86,32.26,28.34,32.26s28.56-12.64,28.56-32.26Z" fill="#fff"/><path id="k" d="M142.79,207.89h33.14v23.54c6.76-16.13,17.66-26.6,37.28-25.72v34.66h-1.74c-22.02,0-35.53,13.3-35.53,41.2v43.16h-33.14v-116.85Z" fill="#fff"/><path id="l" d="M213.85,291.17v-.44c0-25.51,19.4-37.28,47.09-37.28,11.77,0,20.27,1.96,28.56,4.8v-1.96c0-13.73-8.5-21.36-25.07-21.36-12.64,0-21.58,2.4-32.26,6.32l-8.28-25.29c12.86-5.67,25.51-9.37,45.34-9.37,18.09,0,31.17,4.8,39.46,13.08,8.72,8.72,12.64,21.58,12.64,37.28v67.8h-32.05v-12.64c-8.07,8.94-19.18,14.82-35.32,14.82-22.02,0-40.11-12.64-40.11-35.75Zm76.08-7.63v-5.89c-5.67-2.62-13.08-4.36-21.15-4.36-14.17,0-22.89,5.67-22.89,16.13v.44c0,8.94,7.41,14.17,18.09,14.17,15.48,0,25.94-8.5,25.94-20.49Z" fill="#fff"/><path id="m" d="M336.81,207.89h33.14v16.57c7.63-9.81,17.44-18.75,34.23-18.75,25.07,0,39.68,16.57,39.68,43.38v75.65h-33.14v-65.18c0-15.7-7.41-23.76-20.06-23.76s-20.71,8.07-20.71,23.76v65.18h-33.14v-116.85Z" fill="#fff"/><path id="n" d="M454.52,266.53v-.44c0-39.02,25.51-60.39,53.19-60.39,17.66,0,28.56,8.07,36.41,17.44v-57.55h33.14v159.14h-33.14v-16.79c-8.07,10.9-19.18,18.97-36.41,18.97-27.25,0-53.19-21.36-53.19-60.39Zm90.03,0v-.44c0-19.4-12.86-32.26-28.34-32.26s-28.56,12.64-28.56,32.26v.44c0,19.4,13.08,32.26,28.56,32.26s28.34-12.86,28.34-32.26Z" fill="#fff"/><path id="o" d="M584.88,309.26l14.17-21.8c12.64,9.16,25.94,13.95,36.84,13.95,9.59,0,13.95-3.49,13.95-8.72v-.44c0-7.19-11.34-9.59-24.2-13.52-16.35-4.8-34.88-12.43-34.88-35.1v-.44c0-23.76,19.18-37.06,42.73-37.06,14.82,0,30.96,5.01,43.6,13.52l-12.64,22.89c-11.55-6.76-23.11-10.9-31.61-10.9s-12.21,3.49-12.21,8.07v.44c0,6.54,11.12,9.59,23.76,13.95,16.35,5.45,35.32,13.3,35.32,34.66v.44c0,25.94-19.4,37.71-44.69,37.71-16.35,0-34.66-5.45-50.14-17.66Z" fill="#fff"/><path id="p" d="M13.95,457.28v-55.37H0v-28.34H13.95v-29.87H47.09v29.87h27.47v28.34h-27.47v49.92c0,7.63,3.27,11.34,10.68,11.34,6.1,0,11.55-1.53,16.35-4.14v26.6c-6.98,4.14-15.04,6.76-26.16,6.76-20.27,0-34.01-8.07-34.01-35.1Z" fill="#ffe400"/><path id="q" d="M85.89,331.28h33.14v58.86c7.63-9.81,17.44-18.75,34.23-18.75,25.07,0,39.68,16.57,39.68,43.38v75.65h-33.14v-65.18c0-15.7-7.41-23.76-20.06-23.76s-20.71,8.07-20.71,23.76v65.18h-33.14v-159.14Z" fill="#ffe400"/><path id="r" d="M208.84,373.57h33.14v23.54c6.76-16.13,17.66-26.6,37.28-25.72v34.66h-1.74c-22.02,0-35.53,13.3-35.53,41.2v43.16h-33.14v-116.85Z" fill="#ffe400"/><path id="s" d="M281.22,432.65v-.44c0-33.57,27.03-60.82,63.44-60.82s63,26.81,63,60.39v.44c0,33.57-27.03,60.82-63.44,60.82s-63-26.81-63-60.39Zm93.74,0v-.44c0-17.22-12.43-32.26-30.74-32.26s-30.3,14.61-30.3,31.83v.44c0,17.22,12.43,32.26,30.74,32.26s30.3-14.61,30.3-31.83Z" fill="#ffe400"/><path id="t" d="M417.9,449.22v-75.65h33.14v65.18c0,15.7,7.41,23.76,20.06,23.76s20.71-8.07,20.71-23.76v-65.18h33.14v116.85h-33.14v-16.57c-7.63,9.81-17.44,18.75-34.23,18.75-25.07,0-39.68-16.57-39.68-43.38Z" fill="#ffe400"/><path id="u" d="M542.37,513.53l11.34-24.85c11.99,6.76,23.98,10.68,39.46,10.68,22.67,0,33.35-10.9,33.35-31.83v-5.67c-9.81,11.77-20.49,18.97-38.15,18.97-27.25,0-51.88-19.84-51.88-54.5v-.44c0-34.88,25.07-54.5,51.88-54.5,18.09,0,28.78,7.63,37.71,17.44v-15.26h33.14v90.47c0,20.93-5.01,36.19-14.82,46-10.9,10.9-27.69,15.7-50.36,15.7-18.97,0-36.84-4.36-51.67-12.21Zm84.15-87.2v-.44c0-15.91-12.43-27.03-28.56-27.03s-28.34,11.12-28.34,27.03v.44c0,16.13,12.21,27.03,28.34,27.03s28.56-11.12,28.56-27.03Z" fill="#ffe400"/><path id="v" d="M676,331.28h33.14v58.86c7.63-9.81,17.44-18.75,34.23-18.75,25.07,0,39.68,16.57,39.68,43.38v75.65h-33.14v-65.18c0-15.7-7.41-23.76-20.06-23.76s-20.71,8.07-20.71,23.76v65.18h-33.14v-159.14Z" fill="#ffe400"/><path id="w" d="M2.83,598.33v-.44c0-33.35,25.51-60.82,61.26-60.82,22.02,0,35.75,7.41,46.65,19.62l-20.27,21.8c-7.41-7.85-14.82-12.86-26.6-12.86-16.57,0-28.34,14.61-28.34,31.83v.44c0,17.88,11.55,32.26,29.65,32.26,11.12,0,18.75-4.8,26.81-12.43l19.4,19.62c-11.34,12.43-24.42,21.36-47.74,21.36-35.1,0-60.82-27.03-60.82-60.39Z" fill="#ffe400"/><path id="x" d="M119.9,539.25h33.14v23.54c6.76-16.13,17.66-26.6,37.28-25.72v34.66h-1.74c-22.02,0-35.53,13.3-35.53,41.2v43.16h-33.14v-116.85Z" fill="#ffe400"/><path id="y" d="M192.28,598.33v-.44c0-33.35,23.76-60.82,57.77-60.82,39.02,0,56.9,30.3,56.9,63.44,0,2.62-.22,5.67-.44,8.72h-81.31c3.27,15.04,13.73,22.89,28.56,22.89,11.12,0,19.18-3.49,28.34-11.99l18.97,16.79c-10.9,13.52-26.6,21.8-47.74,21.8-35.1,0-61.04-24.63-61.04-60.39Zm82.4-9.81c-1.96-14.82-10.68-24.85-24.63-24.85s-22.67,9.81-25.29,24.85h49.92Z" fill="#ffe400"/><path id="z" d="M311.74,622.53v-.44c0-25.51,19.4-37.28,47.09-37.28,11.77,0,20.27,1.96,28.56,4.8v-1.96c0-13.73-8.5-21.36-25.07-21.36-12.64,0-21.58,2.4-32.26,6.32l-8.28-25.29c12.86-5.67,25.51-9.37,45.34-9.37,18.09,0,31.17,4.8,39.46,13.08,8.72,8.72,12.64,21.58,12.64,37.28v67.8h-32.05v-12.64c-8.07,8.94-19.18,14.82-35.32,14.82-22.02,0-40.11-12.64-40.11-35.75Zm76.08-7.63v-5.89c-5.67-2.62-13.08-4.36-21.15-4.36-14.17,0-22.89,5.67-22.89,16.13v.44c0,8.94,7.41,14.17,18.09,14.17,15.48,0,25.94-8.5,25.94-20.49Z" fill="#ffe400"/><path id="aa" d="M440.36,622.96v-55.37h-13.95v-28.34h13.95v-29.87h33.14v29.87h27.47v28.34h-27.47v49.92c0,7.63,3.27,11.34,10.68,11.34,6.1,0,11.55-1.53,16.35-4.14v26.6c-6.98,4.14-15.04,6.76-26.16,6.76-20.27,0-34.01-8.07-34.01-35.1Z" fill="#ffe400"/><path id="ab" d="M512.95,496.96h34.88v29.43h-34.88v-29.43Zm.87,42.29h33.14v116.85h-33.14v-116.85Z" fill="#ffe400"/><path id="ac" d="M554.8,539.25h35.1l26.16,78.26,26.38-78.26h34.44l-46,117.72h-30.08l-46-117.72Z" fill="#ffe400"/><path id="ad" d="M677.53,598.33v-.44c0-33.35,23.76-60.82,57.77-60.82,39.02,0,56.9,30.3,56.9,63.44,0,2.62-.22,5.67-.44,8.72h-81.32c3.27,15.04,13.73,22.89,28.56,22.89,11.12,0,19.18-3.49,28.34-11.99l18.97,16.79c-10.9,13.52-26.6,21.8-47.74,21.8-35.1,0-61.04-24.63-61.04-60.39Zm82.4-9.81c-1.96-14.82-10.68-24.85-24.63-24.85s-22.67,9.81-25.29,24.85h49.92Z" fill="#ffe400"/><path id="ae" d="M13.95,788.64v-55.37H0v-28.34H13.95v-29.87H47.09v29.87h27.47v28.34h-27.47v49.92c0,7.63,3.27,11.34,10.68,11.34,6.1,0,11.55-1.53,16.35-4.14v26.6c-6.98,4.14-15.04,6.76-26.16,6.76-20.27,0-34.01-8.07-34.01-35.1Z" fill="#fff"/><path id="af" d="M85.89,662.64h33.14v58.86c7.63-9.81,17.44-18.75,34.23-18.75,25.07,0,39.68,16.57,39.68,43.38v75.65h-33.14v-65.18c0-15.7-7.41-23.76-20.06-23.76s-20.71,8.07-20.71,23.76v65.18h-33.14v-159.14Z" fill="#fff"/><path id="ag" d="M209.49,662.64h34.88v29.43h-34.88v-29.43Zm.87,42.29h33.14v116.85h-33.14v-116.85Z" fill="#fff"/><path id="ah" d="M261.81,704.93h33.14v16.57c7.63-9.81,17.44-18.75,34.23-18.75,25.07,0,39.68,16.57,39.68,43.38v75.65h-33.14v-65.18c0-15.7-7.41-23.76-20.06-23.76s-20.71,8.07-20.71,23.76v65.18h-33.14v-116.85Z" fill="#fff"/><path id="ai" d="M384.76,662.64h33.14v84.8l38.8-42.51h39.68l-44.47,46,46,70.85h-37.93l-30.52-47.74-11.55,12.21v35.53h-33.14v-159.14Z" fill="#fff"/><path id="aj" d="M501.61,662.64h34.88v29.43h-34.88v-29.43Zm.87,42.29h33.14v116.85h-33.14v-116.85Z" fill="#fff"/><path id="ak" d="M553.92,704.93h33.14v16.57c7.63-9.81,17.44-18.75,34.23-18.75,25.07,0,39.68,16.57,39.68,43.38v75.65h-33.14v-65.18c0-15.7-7.41-23.76-20.06-23.76s-20.71,8.07-20.71,23.76v65.18h-33.14v-116.85Z" fill="#fff"/><path id="al" d="M677.53,844.89l11.34-24.85c11.99,6.76,23.98,10.68,39.46,10.68,22.67,0,33.35-10.9,33.35-31.83v-5.67c-9.81,11.77-20.49,18.97-38.15,18.97-27.25,0-51.88-19.84-51.88-54.5v-.44c0-34.88,25.07-54.5,51.88-54.5,18.09,0,28.78,7.63,37.71,17.44v-15.26h33.14v90.47c0,20.93-5.01,36.19-14.82,46-10.9,10.9-27.69,15.7-50.36,15.7-18.97,0-36.84-4.36-51.67-12.21Zm84.15-87.2v-.44c0-15.91-12.43-27.03-28.56-27.03s-28.34,11.12-28.34,27.03v.44c0,16.13,12.21,27.03,28.34,27.03s28.56-11.12,28.56-27.03Z" fill="#fff"/><path id="am" d="M809.85,786.9h35.32v34.88h-35.32v-34.88Z" fill="#fff"/></svg>