<?xml version="1.0" encoding="utf-8"?>
<!-- Generator: Adobe Illustrator 26.3.1, SVG Export Plug-In . SVG Version: 6.00 Build 0)  -->
<svg version="1.1" id="a" xmlns="http://www.w3.org/2000/svg" xmlns:xlink="http://www.w3.org/1999/xlink" x="0px" y="0px"
	 viewBox="0 0 960 268" style="enable-background:new 0 0 960 268;" xml:space="preserve">
<style type="text/css">
	.st0{fill:#FFFFFF;}
</style>
<path class="st0" d="M194.14,268.12h-31.62l-37.27-108.06L87.97,268.12H56.36L-0.05,101.79H38.9l34.21,111.83l37.07-112.31h31.15
	l37.07,112.31l34.15-111.83h37.99L194.14,268.12z"/>
<path class="st0" d="M339.48,268.39v-70.37c0-8.48-1.89-14.87-5.66-19.18c-3.77-4.31-9.12-6.47-16.05-6.48
	c-6.92,0-12.39,2.16-16.4,6.48s-6.02,10.71-6.01,19.18v70.37h-35.86V96.16h35.86v63.85c2.07-2.72,4.31-5.3,6.72-7.73
	c2.46-2.48,5.19-4.67,8.14-6.54c3.08-1.94,6.42-3.46,9.91-4.51c3.98-1.16,8.12-1.72,12.27-1.66c13.68,0,24.26,4.17,31.73,12.5
	c7.48,8.33,11.21,19.82,11.2,34.46v81.86H339.48z"/>
<path class="st0" d="M517.83,228.1c-3.38,7.83-8.27,14.93-14.39,20.88c-6.26,6.06-13.63,10.87-21.7,14.16
	c-8.69,3.53-17.99,5.29-27.37,5.19c-9.29,0.08-18.51-1.65-27.13-5.09c-8.04-3.19-15.37-7.92-21.59-13.92
	c-6.07-5.92-10.92-12.97-14.28-20.76c-3.49-8.08-5.26-16.8-5.19-25.6v-0.43c-0.07-8.8,1.7-17.52,5.19-25.6
	c3.38-7.85,8.27-14.95,14.39-20.92c6.26-6.06,13.63-10.86,21.7-14.15c8.69-3.53,18-5.29,27.37-5.19c9.29-0.08,18.51,1.64,27.13,5.09
	c8.03,3.19,15.37,7.92,21.59,13.92c6.07,5.92,10.91,12.97,14.27,20.76c3.49,8.08,5.26,16.8,5.2,25.6v0.49
	C523.09,211.32,521.32,220.02,517.83,228.1z M487.67,202.52c0.03-4.55-0.77-9.07-2.36-13.33c-3.1-8.32-9.37-15.07-17.44-18.76
	c-4.22-1.91-8.81-2.88-13.45-2.83c-4.74-0.09-9.45,0.84-13.81,2.71c-3.9,1.73-7.4,4.27-10.26,7.44c-2.87,3.19-5.09,6.91-6.53,10.96
	c-1.51,4.28-2.27,8.79-2.24,13.33v0.48c-0.03,4.55,0.77,9.07,2.36,13.33c3.11,8.28,9.33,15.01,17.34,18.75
	c4.26,1.94,8.89,2.91,13.57,2.83c4.74,0.09,9.45-0.83,13.81-2.71c3.92-1.75,7.43-4.3,10.29-7.49c2.84-3.18,5.03-6.88,6.45-10.9
	c1.53-4.29,2.3-8.81,2.28-13.37V202.52z"/>
<path class="st0" d="M776.64,268.12h-31.61l-37.28-108.06l-37.27,108.06h-31.63l-56.38-166.33h38.94l34.21,111.83l37.02-112.31
	h31.15l37.07,112.31l34.21-111.83h37.99L776.64,268.12z"/>
<path class="st0" d="M959.85,210.28c-0.08,1.26-0.2,2.75-0.36,4.48h-88c1.73,8.18,5.31,14.35,10.74,18.52
	c5.43,4.17,12.15,6.25,20.17,6.25c5.5,0.09,10.96-0.95,16.04-3.07c4.72-2.04,9.6-5.34,14.63-9.91l20.53,18.17
	c-5.87,7.31-13.29,13.23-21.71,17.34c-8.49,4.16-18.48,6.25-29.96,6.25c-8.99,0.08-17.91-1.52-26.3-4.72
	c-7.85-2.99-15-7.56-21-13.45c-5.95-5.88-10.64-12.91-13.81-20.65c-3.4-8.43-5.08-17.45-4.96-26.54v-0.45
	c-0.05-8.71,1.51-17.34,4.6-25.48c2.91-7.77,7.27-14.91,12.87-21.04c11.58-12.57,27.97-19.61,45.07-19.34
	c10.54,0,19.66,1.89,27.37,5.66c7.46,3.58,14.03,8.78,19.23,15.21c5.18,6.5,9.02,13.96,11.32,21.94c2.45,8.39,3.67,17.09,3.63,25.83
	v0.47C959.96,207.53,959.92,209.02,959.85,210.28z M916.55,172.88c-4.55-4.96-10.61-7.43-18.17-7.43c-7.56,0-13.65,2.44-18.28,7.31
	c-4.65,4.87-7.68,11.4-9.09,19.58h54.03C923.94,184.32,921.11,177.84,916.55,172.88z"/>
</svg>
