<?xml version="1.0" encoding="UTF-8"?><svg id="a" xmlns="http://www.w3.org/2000/svg" viewBox="0 0 960 722"><path id="b" d="M12.61,358.91h115.85v30.43H46.08v32.38H118.67v30.43H46.08v58.9H12.61v-152.14Z" fill="#fff"/><path id="c" d="M138.01,469.97v-75.42h33.04v64.99c0,15.65,7.39,23.69,20,23.69s20.65-8.04,20.65-23.69v-64.99h33.04v116.5h-33.04v-16.52c-7.61,9.78-17.39,18.69-34.12,18.69-25,0-39.56-16.52-39.56-43.25Z" fill="#fff"/><path id="d" d="M255.81,453.45v-.43c0-33.25,23.69-60.64,57.6-60.64,38.91,0,56.73,30.21,56.73,63.25,0,2.61-.22,5.65-.43,8.69h-81.07c3.26,15,13.69,22.82,28.47,22.82,11.08,0,19.13-3.48,28.26-11.95l18.91,16.74c-10.87,13.48-26.52,21.73-47.6,21.73-34.99,0-60.86-24.56-60.86-60.21Zm82.16-9.78c-1.96-14.78-10.65-24.78-24.56-24.78s-22.6,9.78-25.21,24.78h49.77Z" fill="#fff"/><path id="e" d="M383.39,352.39h33.04v158.66h-33.04v-158.66Z" fill="#fff"/><path id="f" d="M436.2,352.39h33.04v158.66h-33.04v-158.66Z" fill="#fff"/><path id="g" d="M481.84,453.45v-.43c0-33.25,23.69-60.64,57.6-60.64,38.91,0,56.73,30.21,56.73,63.25,0,2.61-.22,5.65-.43,8.69h-81.07c3.26,15,13.69,22.82,28.47,22.82,11.08,0,19.13-3.48,28.25-11.95l18.91,16.74c-10.87,13.48-26.52,21.73-47.6,21.73-34.99,0-60.86-24.56-60.86-60.21Zm82.16-9.78c-1.96-14.78-10.65-24.78-24.56-24.78s-22.6,9.78-25.21,24.78h49.77Z" fill="#fff"/><path id="h" d="M602.69,453.02v-.43c0-38.91,25.43-60.21,53.03-60.21,17.6,0,28.47,8.04,36.3,17.39v-57.38h33.04v158.66h-33.04v-16.74c-8.04,10.87-19.13,18.91-36.3,18.91-27.17,0-53.03-21.3-53.03-60.21Zm89.77,0v-.43c0-19.34-12.82-32.17-28.25-32.17s-28.47,12.61-28.47,32.17v.43c0,19.34,13.04,32.17,28.47,32.17s28.25-12.82,28.25-32.17Z" fill="#fff"/><path id="i" d="M42.17,671.02v15.21H9.13v-158.66H42.17v58.9c8.04-10.87,19.13-18.91,36.3-18.91,27.17,0,53.03,21.3,53.03,60.21v.43c0,38.91-25.43,60.21-53.03,60.21-17.61,0-28.47-8.04-36.3-17.39Zm56.29-42.82v-.43c0-19.34-13.04-32.17-28.47-32.17s-28.26,12.82-28.26,32.17v.43c0,19.34,12.82,32.17,28.26,32.17s28.47-12.61,28.47-32.17Z" fill="#ffe400"/><path id="j" d="M141.49,713.62l11.08-23.91c4.35,2.61,9.78,4.56,14.13,4.56,5.65,0,8.69-1.74,11.52-7.61l-45.64-116.93h34.99l26.52,79.33,25.43-79.33h34.34l-44.77,119.32c-8.91,23.69-18.47,32.6-38.25,32.6-11.95,0-20.87-3.04-29.34-8.04Z" fill="#ffe400"/><path id="k" d="M313.62,527.57h34.78v29.34h-34.78v-29.34Zm.87,42.17h33.04v116.5h-33.04v-116.5Z" fill="#ffe400"/><path id="l" d="M360.57,628.2v-.43c0-38.91,25.43-60.21,53.03-60.21,17.61,0,28.47,8.04,36.3,17.39v-57.38h33.04v158.66h-33.04v-16.74c-8.04,10.87-19.13,18.91-36.3,18.91-27.17,0-53.03-21.3-53.03-60.21Zm89.76,0v-.43c0-19.34-12.82-32.17-28.26-32.17s-28.47,12.61-28.47,32.17v.43c0,19.34,13.04,32.17,28.47,32.17s28.26-12.82,28.26-32.17Z" fill="#ffe400"/><path id="m" d="M494.02,628.63v-.43c0-33.25,23.69-60.64,57.6-60.64,38.91,0,56.73,30.21,56.73,63.25,0,2.61-.22,5.65-.43,8.69h-81.07c3.26,15,13.69,22.82,28.47,22.82,11.08,0,19.13-3.48,28.25-11.95l18.91,16.74c-10.87,13.48-26.52,21.73-47.6,21.73-34.99,0-60.86-24.56-60.86-60.21Zm82.16-9.78c-1.96-14.78-10.65-24.78-24.56-24.78s-22.6,9.78-25.21,24.78h49.77Z" fill="#ffe400"/><path id="n" d="M613.12,652.76v-.43c0-25.43,19.34-37.17,46.95-37.17,11.74,0,20.21,1.96,28.47,4.78v-1.96c0-13.69-8.48-21.3-25-21.3-12.61,0-21.52,2.39-32.17,6.3l-8.26-25.21c12.82-5.65,25.43-9.35,45.21-9.35,18.04,0,31.08,4.78,39.34,13.04,8.69,8.69,12.61,21.52,12.61,37.17v67.6h-31.95v-12.61c-8.04,8.91-19.13,14.78-35.21,14.78-21.95,0-39.99-12.61-39.99-35.65Zm75.85-7.61v-5.87c-5.65-2.61-13.04-4.35-21.08-4.35-14.13,0-22.82,5.65-22.82,16.08v.43c0,8.91,7.39,14.13,18.04,14.13,15.43,0,25.86-8.48,25.86-20.43Z" fill="#ffe400"/><path id="o" d="M726.79,670.8l14.13-21.73c12.61,9.13,25.86,13.91,36.73,13.91,9.56,0,13.91-3.48,13.91-8.69v-.43c0-7.17-11.3-9.56-24.13-13.48-16.3-4.78-34.78-12.39-34.78-34.99v-.43c0-23.69,19.13-36.95,42.6-36.95,14.78,0,30.86,5,43.47,13.48l-12.61,22.82c-11.52-6.74-23.04-10.87-31.52-10.87s-12.17,3.48-12.17,8.04v.43c0,6.52,11.08,9.56,23.69,13.91,16.3,5.43,35.21,13.26,35.21,34.56v.43c0,25.86-19.34,37.6-44.56,37.6-16.3,0-34.56-5.43-49.99-17.61Z" fill="#ffe400"/><path id="p" d="M830.9,651.46h35.21v34.78h-35.21v-34.78Z" fill="#ffe400"/><path id="q" d="M12.61,6.86H82.16c19.34,0,34.34,5.43,44.34,15.43,8.48,8.48,13.04,20.43,13.04,34.78v.43c0,24.56-13.26,39.99-32.6,47.16l37.17,54.34h-39.12l-32.6-48.69h-26.3v48.69H12.61V6.86ZM79.98,80.76c16.3,0,25.65-8.69,25.65-21.52v-.43c0-14.35-10-21.73-26.3-21.73H46.08v43.69h33.91Z" fill="#fff"/><path id="r" d="M147.79,101.41v-.43c0-33.47,26.95-60.64,63.25-60.64s62.81,26.73,62.81,60.21v.43c0,33.47-26.95,60.64-63.25,60.64s-62.81-26.73-62.81-60.21Zm93.46,0v-.43c0-17.17-12.39-32.17-30.65-32.17s-30.21,14.56-30.21,31.73v.43c0,17.17,12.39,32.17,30.65,32.17s30.21-14.56,30.21-31.73Z" fill="#fff"/><path id="s" d="M279.29,101.41v-.43c0-33.47,26.95-60.64,63.25-60.64s62.81,26.73,62.81,60.21v.43c0,33.47-26.95,60.64-63.25,60.64s-62.81-26.73-62.81-60.21Zm93.46,0v-.43c0-17.17-12.39-32.17-30.65-32.17s-30.21,14.56-30.21,31.73v.43c0,17.17,12.39,32.17,30.65,32.17s30.21-14.56,30.21-31.73Z" fill="#fff"/><path id="t" d="M421.86,125.97v-55.21h-13.91v-28.26h13.91V12.73h33.04v29.78h27.39v28.26h-27.39v49.77c0,7.61,3.26,11.3,10.65,11.3,6.09,0,11.52-1.52,16.3-4.13v26.52c-6.96,4.13-15,6.74-26.08,6.74-20.21,0-33.91-8.04-33.91-34.99Z" fill="#fff"/><path id="u" d="M488.15,101.41v-.43c0-33.25,23.69-60.64,57.6-60.64,38.91,0,56.73,30.21,56.73,63.25,0,2.61-.22,5.65-.44,8.69h-81.07c3.26,15,13.69,22.82,28.47,22.82,11.08,0,19.13-3.48,28.26-11.95l18.91,16.74c-10.87,13.48-26.52,21.73-47.6,21.73-34.99,0-60.86-24.56-60.86-60.21Zm82.16-9.78c-1.96-14.78-10.65-24.78-24.56-24.78s-22.6,9.78-25.21,24.78h49.77Z" fill="#fff"/><path id="v" d="M608.99,100.97v-.43c0-38.91,25.43-60.21,53.03-60.21,17.6,0,28.47,8.04,36.3,17.39V.34h33.04V159.01h-33.04v-16.74c-8.04,10.87-19.13,18.91-36.3,18.91-27.17,0-53.03-21.3-53.03-60.21Zm89.77,0v-.43c0-19.34-12.82-32.17-28.25-32.17s-28.47,12.61-28.47,32.17v.43c0,19.34,13.04,32.17,28.47,32.17s28.25-12.82,28.25-32.17Z" fill="#fff"/><path id="w" d="M801.12,.34h34.78V29.68h-34.78V.34Zm.87,42.17h33.04v116.5h-33.04V42.51Z" fill="#fff"/><path id="x" d="M853.28,42.51h33.04v16.52c7.61-9.78,17.39-18.69,34.12-18.69,25,0,39.56,16.52,39.56,43.25v75.42h-33.04V94.02c0-15.65-7.39-23.69-20-23.69s-20.65,8.04-20.65,23.69v64.99h-33.04V42.51Z" fill="#fff"/><path id="y" d="M0,300.7l14.13-21.73c12.61,9.13,25.86,13.91,36.73,13.91,9.56,0,13.91-3.48,13.91-8.69v-.43c0-7.17-11.3-9.56-24.13-13.48-16.3-4.78-34.78-12.39-34.78-34.99v-.43c0-23.69,19.13-36.95,42.6-36.95,14.78,0,30.86,5,43.47,13.48l-12.61,22.82c-11.52-6.74-23.04-10.87-31.52-10.87-8.04,0-12.17,3.48-12.17,8.04v.43c0,6.52,11.08,9.56,23.69,13.91,16.3,5.43,35.21,13.26,35.21,34.56v.43c0,25.86-19.34,37.6-44.56,37.6-16.3,0-34.56-5.43-49.99-17.61Z" fill="#ffe400"/><path id="z" d="M110.85,283.1v-55.21h-13.91v-28.26h13.91v-29.78h33.04v29.78h27.39v28.26h-27.39v49.77c0,7.61,3.26,11.3,10.65,11.3,6.09,0,11.52-1.52,16.3-4.13v26.52c-6.96,4.13-15,6.74-26.08,6.74-20.21,0-33.91-8.04-33.91-34.99Z" fill="#ffe400"/><path id="aa" d="M182.57,199.63h33.04v23.47c6.74-16.08,17.61-26.52,37.17-25.65v34.56h-1.74c-21.95,0-35.43,13.26-35.43,41.08v43.04h-33.04v-116.5Z" fill="#ffe400"/><path id="ab" d="M253.42,282.66v-.43c0-25.43,19.34-37.17,46.95-37.17,11.74,0,20.21,1.96,28.47,4.78v-1.96c0-13.69-8.48-21.3-25-21.3-12.61,0-21.52,2.39-32.17,6.3l-8.26-25.21c12.82-5.65,25.43-9.35,45.21-9.35,18.04,0,31.08,4.78,39.34,13.04,8.69,8.69,12.61,21.52,12.61,37.17v67.6h-31.95v-12.61c-8.04,8.91-19.13,14.78-35.21,14.78-21.95,0-39.99-12.61-39.99-35.65Zm75.85-7.61v-5.87c-5.65-2.61-13.04-4.35-21.08-4.35-14.13,0-22.82,5.65-22.82,16.08v.43c0,8.91,7.39,14.13,18.04,14.13,15.43,0,25.86-8.48,25.86-20.43Z" fill="#ffe400"/><path id="ac" d="M381.66,283.1v-55.21h-13.91v-28.26h13.91v-29.78h33.04v29.78h27.39v28.26h-27.39v49.77c0,7.61,3.26,11.3,10.65,11.3,6.09,0,11.52-1.52,16.3-4.13v26.52c-6.96,4.13-15,6.74-26.08,6.74-20.21,0-33.91-8.04-33.91-34.99Z" fill="#ffe400"/><path id="ad" d="M447.95,258.54v-.43c0-33.25,23.69-60.64,57.6-60.64,38.91,0,56.73,30.21,56.73,63.25,0,2.61-.22,5.65-.44,8.69h-81.07c3.26,15,13.69,22.82,28.47,22.82,11.08,0,19.13-3.48,28.26-11.95l18.91,16.74c-10.87,13.48-26.52,21.73-47.6,21.73-34.99,0-60.86-24.56-60.86-60.21Zm82.16-9.78c-1.96-14.78-10.65-24.78-24.56-24.78s-22.6,9.78-25.21,24.78h49.77Z" fill="#ffe400"/><path id="ae" d="M574.66,339.17l11.3-24.78c11.95,6.74,23.91,10.65,39.34,10.65,22.6,0,33.25-10.87,33.25-31.73v-5.65c-9.78,11.74-20.43,18.91-38.04,18.91-27.17,0-51.73-19.78-51.73-54.34v-.43c0-34.78,25-54.34,51.73-54.34,18.04,0,28.69,7.61,37.6,17.39v-15.21h33.04v90.2c0,20.87-5,36.08-14.78,45.86-10.87,10.87-27.6,15.65-50.21,15.65-18.91,0-36.73-4.35-51.51-12.17Zm83.9-86.94v-.43c0-15.87-12.39-26.95-28.47-26.95s-28.25,11.08-28.25,26.95v.43c0,16.08,12.17,26.95,28.25,26.95s28.47-11.08,28.47-26.95Z" fill="#ffe400"/><path id="af" d="M706.37,343.52l11.08-23.91c4.35,2.61,9.78,4.56,14.13,4.56,5.65,0,8.69-1.74,11.52-7.61l-45.64-116.93h34.99l26.52,79.33,25.43-79.33h34.34l-44.77,119.32c-8.91,23.69-18.47,32.6-38.25,32.6-11.95,0-20.87-3.04-29.34-8.04Z" fill="#ffe400"/><path id="ag" d="M824.17,281.36h35.21v34.78h-35.21v-34.78Z" fill="#ffe400"/></svg>