<?xml version="1.0" encoding="utf-8"?>
<!-- Generator: Adobe Illustrator 26.3.1, SVG Export Plug-In . SVG Version: 6.00 Build 0)  -->
<svg version="1.1" id="Layer_1" xmlns="http://www.w3.org/2000/svg" xmlns:xlink="http://www.w3.org/1999/xlink" x="0px" y="0px"
	 viewBox="0 0 1440 1054.45" style="enable-background:new 0 0 1440 1054.45;" xml:space="preserve">
<style type="text/css">
	.st0{fill:#4C5360;}
</style>
<g>
	<g>
		<path class="st0" d="M1165.3,100.48c-24.69-4.14-24.72-4.02-29.92-28.4c-0.37-1.71-0.81-3.41-1.17-5.14L1120.52,0
			c-34.55,33.99-68.36,67.29-102.26,100.51c-3.13,3.06-3.29,6.57-3.27,10.45c0,22.59-0.22,45.17,0.17,67.74
			c0.27,5.82-2.08,11.45-6.42,15.34c-95.4,95.4-190.69,190.9-285.87,286.51c-4.4,4.42-8.05,5.62-14.48,3.99
			c-41.49-10.42-78.65,26.5-67.77,66.97c8.12,30.32,38.12,47.91,68.12,39.89c29.66-7.92,46.98-38.71,38.33-68.89
			c-1.71-5.97-1.33-9.83,3.38-14.51c94.91-94.67,189.65-189.48,284.22-284.45c3.56-3.85,8.65-5.91,13.88-5.62
			c23.75,0.25,47.5-0.14,71.25,0.25c7.02,0.13,12.04-1.7,16.95-6.8c16.28-16.85,32.98-33.39,49.66-49.86
			c15.82-15.62,31.81-31.04,48.85-47.66c-4.33-1.25-6.45-2.05-8.62-2.44C1206.15,107.7,1185.72,103.92,1165.3,100.48z"/>
		<path class="st0" d="M698.33,321.11c34.51-0.15,67.42,7.12,98.32,23.01c3.71,1.91,6.66,3.74,10.7-0.37
			c20.2-20.45,40.73-40.62,61.21-60.72c3.27-3.2,2.6-4.93-0.58-7.46c-11.57-9.5-24.28-17.52-37.84-23.88
			c-67.85-30.65-138.49-32.3-209.01-14.48C461.79,277.58,363.31,435.3,395.43,596.07c29.83,148.95,161.26,249.52,306.46,247.59
			c8.19-0.27,20.46-0.2,32.74-1.85c95.12-12.82,169.32-59.36,221.76-139.4c38.54-58.85,53.78-124.06,47.75-194.25
			c-3.84-48.05-18.23-94.65-42.14-136.51c-2.92-5.13-4.55-6.08-9.19-1.29c-19.38,20-39.05,39.72-58.99,59.16
			c-4.1,4.02-4.44,7.02-2.04,12.01c20.2,42.02,25.72,86.11,17.14,131.86c-20.89,111.28-127.81,191.02-246.9,168.63
			c-113.77-21.32-186.8-125.44-170.55-240.3C505.83,399.89,595.39,321.57,698.33,321.11z"/>
		<path class="st0" d="M1144.95,272.21c-3.99-6.73-8.33-9.83-16.63-9.52c-17.28,0.89-34.6,0.89-51.88,0
			c-13.02-0.77-22.87,2.42-31.49,12.64c-5.13,6.11-6.57,9.42-1.54,16.71c67.74,98.23,90.86,206.59,68.98,323.58
			c-18.26,97.97-66.51,179.89-143.16,243.66c-102.29,85.1-220.22,115.71-350.88,92.17c-97.11-17.5-178.52-65.07-242.3-140.45
			c-84.57-99.98-116.66-215.86-96.38-344.91C295.74,363.78,344.37,278.07,424,211.69c106.17-88.51,228.18-117.88,363.48-90.58
			c57.66,11.66,109.98,36.15,157.69,70.51c2.05,1.4,3.72,4.07,6.74,3.61c4.52-0.72,18.4-18.89,18.4-24.02
			c0-21.7-0.21-43.41,0.17-65.11c0.1-5.72-2.02-9.21-6.28-12.49c-14.14-10.97-29.38-20.44-45.48-28.26
			C847.51,31.14,771.33,20.6,693.45,19.47c-10.55,0-21.07-0.42-31.62,0.13c-10.8,0.55-21.59,1.81-32.3,3.17
			C521.87,36.48,426.93,79.24,347.77,153.05C216.32,275.61,161.36,427.98,182.73,606.2c13.16,109.78,59.1,206.12,135.93,285.57
			c127.41,131.77,283.42,184.66,464.4,155.24c145.71-23.69,260.36-100.03,342.34-222.49c86.9-129.72,106.39-272.21,71.18-423.06
			C1186.1,355.98,1168.69,312.39,1144.95,272.21z"/>
	</g>
</g>
</svg>
