<?xml version="1.0" encoding="utf-8"?>
<!-- Generator: Adobe Illustrator 26.3.1, SVG Export Plug-In . SVG Version: 6.00 Build 0)  -->
<svg version="1.1" id="Layer_1" xmlns="http://www.w3.org/2000/svg" xmlns:xlink="http://www.w3.org/1999/xlink" x="0px" y="0px"
	 viewBox="0 0 841.89 595.28" style="enable-background:new 0 0 841.89 595.28;" xml:space="preserve">
<style type="text/css">
	.st0{fill:#FEE600;}
	.st1{fill:#FFFFFF;}
</style>
<path id="b" class="st0" d="M0,0h33.31l29.12,99.44L93.98,0h26.53l31.55,99.44L181.31,0h32.23l-48.03,147.7h-26.93l-31.75-95.68
	L75.08,147.7H48.15L0,0z"/>
<path id="b_00000036969941278168992360000009414337820915584920_" class="st0" d="M541.17,0.06h33.31l29.12,99.44l31.55-99.44h26.53
	l31.55,99.44l29.25-99.44h32.23l-48.03,147.7h-26.93L648,52.08l-31.75,95.68h-26.93L541.17,0.06z"/>
<path id="c" class="st0" d="M221.39,0h30.46l0.09,55.37c7.03-9.04,16.08-17.28,31.55-17.28c23.11,0,36.57,15.27,36.57,39.99v69.73
	h-30.55V87.73c0-14.47-6.83-21.9-18.49-21.9c-11.66,0-19.09,7.44-19.09,21.9v60.09h-30.55V1.12L221.39,0L221.39,0z"/>
<path id="d" class="st0" d="M328.29,114.63v-0.4c0-23.51,17.88-34.36,43.41-34.36c10.85,0,18.69,1.81,26.33,4.42v-1.81
	c0-12.66-7.84-19.69-23.11-19.69c-11.66,0-19.89,2.21-29.74,5.83l-7.64-23.31c11.86-5.22,23.51-8.64,41.8-8.64
	c16.68,0,28.74,4.42,36.37,12.06c8.04,8.04,11.66,19.89,11.66,34.36v62.5h-29.54v-11.66c-7.44,8.24-17.68,13.66-32.55,13.66
	C344.97,147.59,328.29,135.93,328.29,114.63L328.29,114.63z M398.43,107.6v-5.43c-5.22-2.41-12.06-4.02-19.49-4.02
	c-13.06,0-21.1,5.22-21.1,14.87v0.4c0,8.24,6.83,13.06,16.68,13.06C388.78,126.49,398.43,118.65,398.43,107.6L398.43,107.6z"/>
<path id="e" class="st0" d="M446.85,115.04V63.99h-12.86V37.87h12.86V10.34h30.55v27.53h25.32v26.12h-25.32v46.02
	c0,7.03,3.01,10.45,9.85,10.45c5.63,0,10.65-1.41,15.07-3.82v24.52c-6.43,3.82-13.87,6.23-24.11,6.23
	C459.51,147.39,446.85,139.95,446.85,115.04L446.85,115.04z"/>
<path id="g" class="st0" d="M737.01,91.72v-0.4c0-30.75,21.9-56.07,53.25-56.07c35.97,0,52.45,27.93,52.45,58.48
	c0,2.41-0.2,5.22-0.4,8.04h-74.96c3.01,13.87,12.66,21.1,26.33,21.1c10.25,0,17.68-3.22,26.12-11.05l17.48,15.47
	c-10.05,12.46-24.52,20.1-44.01,20.1C760.93,147.39,737.01,124.68,737.01,91.72z M812.97,82.68c-1.81-13.66-9.85-22.91-22.71-22.91
	c-12.86,0-20.9,9.04-23.31,22.91H812.97z"/>
<path id="h" class="st1" d="M0.98,252.68v-0.4c0-35.97,23.51-55.66,49.03-55.66c16.28,0,26.33,7.44,33.56,16.08v-53.05h30.55
	l0.16,148.56H83.58l-0.02-17.35C76.13,300.9,65.88,308.33,50,308.33c-25.12,0-49.03-19.69-49.03-55.66v0.01H0.98z M83.97,252.68
	v-0.4c0-17.88-11.86-29.74-26.12-29.74s-26.33,11.66-26.33,29.74v0.4c0,17.88,12.06,29.74,26.33,29.74S83.97,270.56,83.97,252.68z"
	/>
<path id="i" class="st1" d="M124.17,252.67v-0.4c0-30.95,24.92-56.07,58.48-56.07s58.08,24.72,58.08,55.66v0.4
	c0,30.95-24.92,56.07-58.48,56.07S124.17,283.62,124.17,252.67z M210.58,252.67v-0.4c0-15.88-11.45-29.74-28.33-29.74
	s-27.93,13.46-27.93,29.34v0.4c0,15.88,11.45,29.74,28.33,29.74S210.58,268.54,210.58,252.67z"/>
</svg>
