<?xml version="1.0" encoding="UTF-8"?><svg id="a" xmlns="http://www.w3.org/2000/svg" viewBox="0 0 960 268"><path id="b" d="M1.08,5.4H30.78l26.1,85.32L85.14,5.04h23.76l28.26,85.68L163.25,5.4h28.98l-43.02,126.9h-24.12l-28.44-82.44-28.44,82.44h-24.12L1.08,5.4Z" fill="#ffe400"/><path id="c" d="M199.26,0h27.36V48.6c6.3-8.1,14.4-15.48,28.26-15.48,20.7,0,32.76,13.68,32.76,35.82v62.46h-27.36v-53.82c0-12.96-6.12-19.62-16.56-19.62s-17.1,6.66-17.1,19.62v53.82h-27.36V0Z" fill="#ffe400"/><path id="d" d="M295.02,103.68v-.36c0-21.06,16.02-30.78,38.88-30.78,9.72,0,16.74,1.62,23.58,3.96v-1.62c0-11.34-7.02-17.64-20.7-17.64-10.44,0-17.82,1.98-26.64,5.22l-6.84-20.88c10.62-4.68,21.06-7.74,37.44-7.74,14.94,0,25.74,3.96,32.58,10.8,7.2,7.2,10.44,17.82,10.44,30.78v55.98h-26.46v-10.44c-6.66,7.38-15.84,12.24-29.16,12.24-18.18,0-33.12-10.44-33.12-29.52Zm62.82-6.3v-4.86c-4.68-2.16-10.8-3.6-17.46-3.6-11.7,0-18.9,4.68-18.9,13.32v.36c0,7.38,6.12,11.7,14.94,11.7,12.78,0,21.42-7.02,21.42-16.92Z" fill="#ffe400"/><path id="e" d="M401.21,104.04V58.32h-11.52v-23.4h11.52V10.26h27.36v24.66h22.68v23.4h-22.68v41.22c0,6.3,2.7,9.36,8.82,9.36,5.04,0,9.54-1.26,13.5-3.42v21.96c-5.76,3.42-12.42,5.58-21.6,5.58-16.74,0-28.08-6.66-28.08-28.98Z" fill="#ffe400"/><path id="f" d="M0,168.48H27.72l15.48,58.5,18.18-58.86h23.58l18.36,59.04,15.84-58.68h27.18l-30.06,97.2h-24.66l-18.54-59.22-18.9,59.22H29.7L0,168.48Z" fill="#ffe400"/><path id="g" d="M147.6,217.26v-.36c0-27.54,19.62-50.22,47.7-50.22,32.22,0,46.98,25.02,46.98,52.38,0,2.16-.18,4.68-.36,7.2h-67.14c2.7,12.42,11.34,18.9,23.58,18.9,9.18,0,15.84-2.88,23.4-9.9l15.66,13.86c-9,11.16-21.96,18-39.42,18-28.98,0-50.4-20.34-50.4-49.86Zm68.04-8.1c-1.62-12.24-8.82-20.52-20.34-20.52s-18.72,8.1-20.88,20.52h41.22Z" fill="#ffe400"/><path id="h" d="M291.05,216.9v-.36c0-32.22,21.06-49.86,43.92-49.86,14.58,0,23.58,6.66,30.06,14.4v-47.52h27.36v131.39h-27.36v-13.86c-6.66,9-15.84,15.66-30.06,15.66-22.5,0-43.92-17.64-43.92-49.86Zm74.34,0v-.36c0-16.02-10.62-26.64-23.4-26.64s-23.58,10.44-23.58,26.64v.36c0,16.02,10.8,26.64,23.58,26.64s23.4-10.62,23.4-26.64Z" fill="#ffe400"/><path id="i" d="M401.57,217.26v-.36c0-27.72,22.32-50.22,52.38-50.22s52.02,22.14,52.02,49.86v.36c0,27.72-22.32,50.22-52.38,50.22s-52.02-22.14-52.02-49.86Zm77.4,0v-.36c0-14.22-10.26-26.64-25.38-26.64s-25.02,12.06-25.02,26.28v.36c0,14.22,10.26,26.64,25.38,26.64s25.02-12.06,25.02-26.28Z" fill="#ffe400"/></svg>