<?xml version="1.0" encoding="UTF-8"?><svg id="a" xmlns="http://www.w3.org/2000/svg" viewBox="0 0 960 216"><path id="b" d="M0,8.7H47.84l42.04,137.43L135.4,8.12h38.27l45.52,138.01L261.23,8.7h46.68l-69.29,204.4h-38.85l-45.81-132.79-45.81,132.79h-38.85L0,8.7Z" fill="#ffe400"/><path id="c" d="M282.68,134.82v-.58c0-44.65,35.95-80.89,84.37-80.89s83.79,35.66,83.79,80.31v.58c0,44.65-35.95,80.89-84.37,80.89s-83.79-35.66-83.79-80.31Zm124.67,0v-.58c0-22.9-16.53-42.91-40.88-42.91s-40.3,19.43-40.3,42.33v.58c0,22.91,16.53,42.91,40.88,42.91s40.3-19.43,40.3-42.33Z" fill="#ffe400"/><path id="d" d="M459.82,56.25h44.07v31.31c8.99-21.46,23.49-35.37,49.58-34.21v46.1h-2.32c-29.28,0-47.26,17.69-47.26,54.8v57.41h-44.07V56.25Z" fill="#ffe400"/><path id="e" d="M558.1,0h44.07V112.78l51.61-56.54h52.77l-59.15,61.18,61.18,94.23h-50.45l-40.59-63.5-15.37,16.24v47.26h-44.07V0Z" fill="#ffe400"/></svg>