<?xml version="1.0" encoding="utf-8"?>
<!-- Generator: Adobe Illustrator 26.3.1, SVG Export Plug-In . SVG Version: 6.00 Build 0)  -->
<svg version="1.1" id="Layer_1" xmlns="http://www.w3.org/2000/svg" xmlns:xlink="http://www.w3.org/1999/xlink" x="0px" y="0px"
	 viewBox="0 0 1320 595.28" style="enable-background:new 0 0 1320 595.28;" xml:space="preserve">
<style type="text/css">
	.st0{fill:#4B5360;}
</style>
<path class="st0" d="M470.23,568.95l-51.71-126.97H179.33L127.5,568.95H0.54L242.97-0.72h114.74l242.63,569.68H470.23z
	 M298.93,148.77L223.77,332.2h150.19L298.93,148.77z"/>
<path class="st0" d="M880.73,256.24c-40.96,0-73.15,12.39-96.57,37.17c-23.42,24.78-35.14,63.29-35.15,115.54v160H626.18V135.78
	h122.83v87.28c12.4-29.63,29.37-53.33,50.91-71.1c21.54-17.78,50.64-25.86,87.28-24.25v128.48L880.73,256.24z"/>
<path class="st0" d="M1319.11,379.87c-0.28,4.32-0.68,9.44-1.19,15.36h-301.43c5.93,28.02,18.18,49.16,36.77,63.43
	c18.59,14.27,41.62,21.41,69.08,21.41c18.85,0.31,37.56-3.26,54.97-10.51c16.17-7,32.86-18.31,50.09-33.93l70.3,62.24
	c-20.11,25.03-45.49,45.31-74.34,59.4c-29.11,14.26-63.33,21.39-102.64,21.41c-30.78,0.27-61.33-5.21-90.1-16.16
	c-26.89-10.24-51.38-25.91-71.92-46.06c-20.36-20.16-36.45-44.21-47.3-70.73c-11.32-27.19-16.98-57.48-16.98-90.89v-1.62
	c-0.16-29.82,5.18-59.41,15.76-87.28c9.95-26.57,24.9-50.98,44.04-71.92c39.66-43.07,95.81-67.17,154.35-66.25
	c36.06,0,67.31,6.46,93.73,19.39c25.57,12.24,48.08,30.04,65.9,52.08c17.74,22.26,30.92,47.8,38.79,75.16
	c8.4,28.74,12.59,58.54,12.45,88.48v1.62C1319.53,370.46,1319.38,375.57,1319.11,379.87z M1170.83,251.79
	c-15.63-16.96-36.38-25.44-62.24-25.44s-46.74,8.35-62.64,25.04c-15.9,16.71-26.27,39.07-31.12,67.07h185.07
	C1196.14,290.97,1186.45,268.75,1170.83,251.79z"/>
</svg>
