<?xml version="1.0" encoding="UTF-8"?><svg id="a" xmlns="http://www.w3.org/2000/svg" viewBox="0 0 960 292"><path id="b" d="M1.31,6.54H37.28l31.61,103.33L103.12,6.1h28.78l34.23,103.77L197.73,6.54h35.1l-52.1,153.69h-29.21L117.07,60.39l-34.44,99.84h-29.21L1.31,6.54Z" fill="#fff"/><path id="c" d="M241.33,0h33.14V58.86c7.63-9.81,17.44-18.75,34.23-18.75,25.07,0,39.68,16.57,39.68,43.38v75.65h-33.14V93.96c0-15.7-7.41-23.76-20.06-23.76s-20.71,8.07-20.71,23.76v65.18h-33.14V0Z" fill="#fff"/><path id="d" d="M358.61,101.37v-.44c0-33.57,27.03-60.82,63.44-60.82s63,26.81,63,60.39v.44c0,33.57-27.03,60.82-63.44,60.82s-63-26.81-63-60.39Zm93.74,0v-.44c0-17.22-12.43-32.26-30.74-32.26s-30.3,14.61-30.3,31.83v.44c0,17.22,12.43,32.26,30.74,32.26s30.3-14.61,30.3-31.83Z" fill="#fff"/><polygon points="180.72 160.23 151.51 160.23 117.07 60.39 82.62 160.23 53.41 160.23 1.31 6.54 37.28 6.54 68.89 109.87 103.11 6.11 131.89 6.11 166.12 109.87 197.73 6.54 232.82 6.54 180.72 160.23" fill="none" stroke="#ffe400" stroke-miterlimit="10" stroke-width=".5"/><path id="e" d="M0,171.89H33.57l18.75,70.85,22.02-71.29h28.56l22.24,71.5,19.18-71.07h32.92l-36.41,117.72h-29.87l-22.45-71.72-22.89,71.72h-29.65L0,171.89Z" fill="#fff"/><path id="f" d="M178.54,230.97v-.44c0-33.35,23.76-60.82,57.77-60.82,39.02,0,56.9,30.3,56.9,63.44,0,2.62-.22,5.67-.44,8.72h-81.31c3.27,15.04,13.73,22.89,28.56,22.89,11.12,0,19.18-3.49,28.34-11.99l18.97,16.79c-10.9,13.52-26.6,21.8-47.74,21.8-35.1,0-61.04-24.63-61.04-60.39Zm82.4-9.81c-1.96-14.82-10.68-24.85-24.63-24.85s-22.67,9.81-25.29,24.85h49.92Z" fill="#fff"/><path id="g" d="M350.54,255.17v-.44c0-25.51,19.4-37.28,47.09-37.28,11.77,0,20.27,1.96,28.56,4.8v-1.96c0-13.73-8.5-21.36-25.07-21.36-12.64,0-21.58,2.4-32.26,6.32l-8.28-25.29c12.86-5.67,25.51-9.37,45.34-9.37,18.09,0,31.17,4.8,39.46,13.08,8.72,8.72,12.64,21.58,12.64,37.28v67.8h-32.05v-12.64c-8.07,8.94-19.18,14.82-35.32,14.82-22.02,0-40.11-12.64-40.11-35.75Zm76.08-7.63v-5.89c-5.67-2.62-13.08-4.36-21.15-4.36-14.17,0-22.89,5.67-22.89,16.13v.44c0,8.94,7.41,14.17,18.09,14.17,15.48,0,25.94-8.5,25.94-20.49Z" fill="#fff"/><path id="h" d="M473.71,171.89h33.14v23.54c6.76-16.13,17.66-26.6,37.28-25.72v34.66h-1.74c-22.02,0-35.53,13.3-35.53,41.2v43.16h-33.14v-116.85Z" fill="#fff"/><path id="i" d="M546.3,230.97v-.44c0-33.35,23.76-60.82,57.77-60.82,39.02,0,56.9,30.3,56.9,63.44,0,2.62-.22,5.67-.44,8.72h-81.32c3.27,15.04,13.73,22.89,28.56,22.89,11.12,0,19.18-3.49,28.34-11.99l18.97,16.79c-10.9,13.52-26.6,21.8-47.74,21.8-35.1,0-61.04-24.63-61.04-60.39Zm82.4-9.81c-1.96-14.82-10.68-24.85-24.63-24.85s-22.67,9.81-25.29,24.85h49.92Z" fill="#fff"/><path id="j" d="M671.43,253.86h35.32v34.88h-35.32v-34.88Z" fill="#fff"/><polygon points="140.83 289.61 110.96 289.61 88.51 217.89 65.62 289.61 35.97 289.61 0 171.89 33.57 171.89 52.32 242.74 74.34 171.46 102.9 171.46 125.13 242.96 144.32 171.89 177.23 171.89 140.83 289.61" fill="none" stroke="#ffe400" stroke-miterlimit="10" stroke-width=".5"/></svg>