<svg id="Layer_1" data-name="Layer 1" xmlns="http://www.w3.org/2000/svg" viewBox="0 0 1320 595.28"><defs><style>.cls-1{fill:#ffe500;}.cls-2{fill:#fff;}</style></defs><title>what we do</title><path class="cls-1" d="M253.22,312.36H212.49l-48-139.2-48,139.2H75.72L3.08,98.09H53.23L97.3,242.15,145,97.48h40.12l47.71,144.67L276.92,98.09h48.94Z"/><path class="cls-1" d="M440.44,310.84V220.19q0-16.37-7.3-24.71t-20.66-8.34q-13.38,0-21.13,8.34t-7.75,24.71v90.65H337.4V89h46.2v82.25a101,101,0,0,1,8.66-9.95,60.56,60.56,0,0,1,10.49-8.41A52,52,0,0,1,415.52,147a53.72,53.72,0,0,1,15.8-2.15q26.44,0,40.88,16.11t14.44,44.38V310.84Z"/><path class="cls-1" d="M604,310.84V293.21a64.18,64.18,0,0,1-20.36,15.05q-11.87,5.63-28.88,5.62A72.19,72.19,0,0,1,533,310.69a51.07,51.07,0,0,1-17.78-9.57,45.7,45.7,0,0,1-12-15.66A49.32,49.32,0,0,1,498.79,264v-.61q0-13.38,4.86-23.1a44.37,44.37,0,0,1,13.53-16.11,60.48,60.48,0,0,1,20.66-9.57,103.39,103.39,0,0,1,26.6-3.2,113.46,113.46,0,0,1,21.73,1.83,136,136,0,0,1,18.08,4.86v-2.73q0-14.59-8.81-22.19t-26.14-7.6a108.44,108.44,0,0,0-23.55,2.28,159.47,159.47,0,0,0-21.43,6.53l-11.55-35.25a181.16,181.16,0,0,1,28-9.42q14.6-3.66,35.26-3.65,38,0,55.31,18.54t17.33,51.67v94.52Zm.91-65.65a71.23,71.23,0,0,0-13.52-4.41,73.11,73.11,0,0,0-16-1.67q-14.89,0-23.4,5.78t-8.51,16.71v.61q0,9.42,7,14.59T568.69,282q16.41,0,26.29-7.9a25.23,25.23,0,0,0,9.88-20.67Z"/><path class="cls-1" d="M745.58,311a72.7,72.7,0,0,1-20.36,2.59,75.76,75.76,0,0,1-19.3-2.28,34.39,34.39,0,0,1-14.9-8.06,38.66,38.66,0,0,1-9.72-15q-3.49-9.27-3.5-23.56v-77.2H658.35V147.93H677.8V106.29H724v41.64h38.3v39.51H724V257q0,15.81,14.89,15.81a47.07,47.07,0,0,0,22.8-5.77v37.07A71.86,71.86,0,0,1,745.58,311Z"/><path class="cls-1" d="M1089.63,312.36H1048.9l-48-139.2-48,139.2H912.13L839.49,98.09h50.15l44.07,144.06L981.43,97.48h40.12l47.71,144.67,44.07-144.06h48.94Z"/><path class="cls-1" d="M1325.63,239.72c-.11,1.63-.26,3.55-.46,5.78H1211.81q3.33,15.79,13.82,23.85t26,8.06a51.59,51.59,0,0,0,20.67-4q9.12-3.94,18.84-12.77l26.44,23.4a81.85,81.85,0,0,1-28,22.34q-16.41,8.06-38.6,8.06a92.87,92.87,0,0,1-33.89-6.08,78.57,78.57,0,0,1-27-17.32,80.32,80.32,0,0,1-17.78-26.6,88.33,88.33,0,0,1-6.38-34.19v-.61a91.1,91.1,0,0,1,5.93-32.82,83.41,83.41,0,0,1,16.56-27.05,77.27,77.27,0,0,1,58-24.93q20.37,0,35.26,7.3a71.85,71.85,0,0,1,24.77,19.6,81.64,81.64,0,0,1,14.59,28.27,117,117,0,0,1,4.71,33.28V234C1325.78,236.18,1325.73,238.1,1325.63,239.72Zm-55.77-48.17Q1261,182,1246.45,182t-23.55,9.43q-9,9.42-11.7,25.22h69.6Q1278.67,201.13,1269.86,191.55Z"/><path class="cls-2" d="M207.32,468.92a99.14,99.14,0,0,1-23.25,33.74,110.14,110.14,0,0,1-35.86,22.49q-20.82,8.21-45.74,8.2h-83V320.6h83q24.91,0,45.74,8A108.32,108.32,0,0,1,184.07,351a99.51,99.51,0,0,1,23.25,33.59,105.72,105.72,0,0,1,8.21,41.79V427A106.81,106.81,0,0,1,207.32,468.92ZM166.6,427a69.6,69.6,0,0,0-4.71-25.84,60.79,60.79,0,0,0-13.07-20.36,58,58,0,0,0-20.21-13.22,70.24,70.24,0,0,0-26.14-4.71H66.3V491.11h36.17a72.29,72.29,0,0,0,26.14-4.56,56.31,56.31,0,0,0,20.21-13.07,61.51,61.51,0,0,0,13.07-20.06,68,68,0,0,0,4.71-25.84Z"/><path class="cls-2" d="M395.76,485.18a84.16,84.16,0,0,1-18.54,26.9,87.68,87.68,0,0,1-28,18.23A91,91,0,0,1,314,537a92,92,0,0,1-34.95-6.54,85.18,85.18,0,0,1-27.81-17.93,83.44,83.44,0,0,1-18.39-26.74,81.63,81.63,0,0,1-6.68-33v-.61a81.62,81.62,0,0,1,6.68-33,84.16,84.16,0,0,1,18.54-26.9,88,88,0,0,1,28-18.24,91.25,91.25,0,0,1,35.26-6.68,92.23,92.23,0,0,1,34.95,6.53,85.34,85.34,0,0,1,27.81,17.93,83.59,83.59,0,0,1,18.39,26.75,81.64,81.64,0,0,1,6.69,33v.6A81.6,81.6,0,0,1,395.76,485.18Zm-38.9-33a48.35,48.35,0,0,0-3-17.17,43.23,43.23,0,0,0-22.49-24.16A40.9,40.9,0,0,0,314,407.22a42.87,42.87,0,0,0-17.78,3.5A39.39,39.39,0,0,0,283,420.29a42.34,42.34,0,0,0-8.36,14.13,50.66,50.66,0,0,0-2.88,17.18v.6a48.19,48.19,0,0,0,3,17.18,43.59,43.59,0,0,0,22.33,24.16,40.58,40.58,0,0,0,17.48,3.64,42.84,42.84,0,0,0,17.78-3.49,39.29,39.29,0,0,0,13.22-9.57A42.28,42.28,0,0,0,354,470a50.57,50.57,0,0,0,2.89-17.17Z"/></svg>