<?xml version="1.0" encoding="utf-8"?>
<!-- Generator: Adobe Illustrator 26.3.1, SVG Export Plug-In . SVG Version: 6.00 Build 0)  -->
<svg version="1.1" id="a" xmlns="http://www.w3.org/2000/svg" xmlns:xlink="http://www.w3.org/1999/xlink" x="0px" y="0px"
	 viewBox="0 0 960 268" style="enable-background:new 0 0 0 8;" xml:space="preserve">
<style type="text/css">
	.st0{fill:#FEE600;}
	.st1{fill:#4B5360;}
</style>
<rect class="st0" width="960" height="268"/>
<path id="b" class="st1" d="M0.96,0H30.8l26.08,89.07L85.14,0h23.76l28.26,89.07L163.36,0h28.87l-43.02,132.3h-24.12L96.65,46.6
	l-28.44,85.7H44.09L0.96,0z"/>
<path id="c" class="st1" d="M199.26,0h27.28l0.08,49.6c6.3-8.1,14.4-15.48,28.26-15.48c20.7,0,32.76,13.68,32.76,35.82v62.46h-27.36
	V78.58c0-12.96-6.12-19.62-16.56-19.62s-17.1,6.66-17.1,19.62v53.82h-27.36V1V0z"/>
<path id="d" class="st1" d="M295.02,102.68v-0.36c0-21.06,16.02-30.78,38.88-30.78c9.72,0,16.74,1.62,23.58,3.96v-1.62
	c0-11.34-7.02-17.64-20.7-17.64c-10.44,0-17.82,1.98-26.64,5.22l-6.84-20.88c10.62-4.68,21.06-7.74,37.44-7.74
	c14.94,0,25.74,3.96,32.58,10.8c7.2,7.2,10.44,17.82,10.44,30.78v55.98H357.3v-10.44c-6.66,7.38-15.84,12.24-29.16,12.24
	C309.96,132.2,295.02,121.76,295.02,102.68L295.02,102.68z M357.84,96.38v-4.86c-4.68-2.16-10.8-3.6-17.46-3.6
	c-11.7,0-18.9,4.68-18.9,13.32v0.36c0,7.38,6.12,11.7,14.94,11.7C349.2,113.3,357.84,106.28,357.84,96.38L357.84,96.38z"/>
<path id="e" class="st1" d="M401.21,103.04V57.32h-11.52v-23.4h11.52V9.26h27.36v24.66h22.68v23.4h-22.68v41.22
	c0,6.3,2.7,9.36,8.82,9.36c5.04,0,9.54-1.26,13.5-3.42v21.96c-5.76,3.42-12.42,5.58-21.6,5.58
	C412.55,132.02,401.21,125.36,401.21,103.04L401.21,103.04z"/>
<path id="f" class="st1" d="M0,170.8h27.72l15.48,58.5l18.18-58.86h23.58l18.36,59.04l15.84-58.68h27.18L116.28,268H91.62
	l-18.54-59.22L54.18,268H29.7L0,170.8z"/>
<path id="g" class="st1" d="M147.6,218.26v-0.36c0-27.54,19.62-50.22,47.7-50.22c32.22,0,46.98,25.02,46.98,52.38
	c0,2.16-0.18,4.68-0.36,7.2h-67.14c2.7,12.42,11.34,18.9,23.58,18.9c9.18,0,15.84-2.88,23.4-9.9l15.66,13.86
	c-9,11.16-21.96,18-39.42,18C169.02,268.12,147.6,247.78,147.6,218.26z M215.64,210.16c-1.62-12.24-8.82-20.52-20.34-20.52
	s-18.72,8.1-20.88,20.52H215.64z"/>
<path id="h" class="st1" d="M291.23,218.27v-0.36c0-32.22,21.06-49.86,43.92-49.86c14.58,0,23.58,6.66,30.06,14.4v-47.52h27.36
	L392.71,268h-27.49l-0.02-15.54c-6.66,9-15.84,15.66-30.06,15.66c-22.5,0-43.92-17.64-43.92-49.86V218.27z M365.57,218.27v-0.36
	c0-16.02-10.62-26.64-23.4-26.64s-23.58,10.44-23.58,26.64v0.36c0,16.02,10.8,26.64,23.58,26.64S365.57,234.29,365.57,218.27z"/>
<path id="i" class="st1" d="M401.57,218.26v-0.36c0-27.72,22.32-50.22,52.38-50.22s52.02,22.14,52.02,49.86v0.36
	c0,27.72-22.32,50.22-52.38,50.22S401.57,245.98,401.57,218.26z M478.97,218.26v-0.36c0-14.22-10.26-26.64-25.38-26.64
	s-25.02,12.06-25.02,26.28v0.36c0,14.22,10.26,26.64,25.38,26.64S478.97,232.48,478.97,218.26z"/>
</svg>
