<?xml version="1.0" encoding="utf-8"?>
<!-- Generator: Adobe Illustrator 26.3.1, SVG Export Plug-In . SVG Version: 6.00 Build 0)  -->
<svg version="1.1" id="a" xmlns="http://www.w3.org/2000/svg" xmlns:xlink="http://www.w3.org/1999/xlink" x="0px" y="0px"
	 viewBox="0 0 960 216" style="enable-background:new 0 0 960 216;" xml:space="preserve">
<style type="text/css">
	.st0{fill:#FEE600;}
	.st1{fill:#4B5360;}
</style>
<rect class="st0" width="960" height="216"/>
<path id="b" class="st1" d="M1.52,0h50.75l44.17,145.43L144.4,0h40.33l47.97,145.43L277.18,0h49l-73.02,216h-40.94L163.96,76.07
	L115.69,216H74.75L1.52,0z"/>
<path id="c" class="st1" d="M292.68,135.82v-0.58c0-44.65,35.95-80.89,84.37-80.89s83.79,35.66,83.79,80.31v0.58
	c0,44.65-35.95,80.89-84.37,80.89S292.68,180.47,292.68,135.82z M417.35,135.82v-0.58c0-22.9-16.53-42.91-40.88-42.91
	s-40.3,19.43-40.3,42.33v0.58c0,22.91,16.53,42.91,40.88,42.91S417.35,158.72,417.35,135.82z"/>
<path id="d" class="st1" d="M469.82,60.59h44.07V91.9c8.99-21.46,23.49-35.37,49.58-34.21v46.1h-2.32
	c-29.28,0-47.26,17.69-47.26,54.8V216h-44.07V60.59z"/>
<path id="e" class="st1" d="M571.55,0h44.98v115.1l52.67-57.7h53.85l-60.37,62.44L725.13,216h-51.49l-41.42-64.81l-15.69,16.57V216
	h-44.98L571.55,0L571.55,0z"/>
</svg>
