<?xml version="1.0" encoding="utf-8"?>
<!-- Generator: Adobe Illustrator 26.3.1, SVG Export Plug-In . SVG Version: 6.00 Build 0)  -->
<svg version="1.1" id="Layer_1" xmlns="http://www.w3.org/2000/svg" xmlns:xlink="http://www.w3.org/1999/xlink" x="0px" y="0px"
	 viewBox="0 0 1320 595.28" style="enable-background:new 0 0 1320 595.28;" xml:space="preserve">
<style type="text/css">
	.st0{fill:#FFFFFF;}
	.st1{fill:#FFE500;}
	.st2{font-family:'Gotham-Bold';}
	.st3{font-size:22.4139px;}
	.st4{enable-background:new    ;}
</style>
<path class="st0" d="M256.37,176.26c-12.96,30.79-37.64,55.15-68.59,67.71c-16.02,6.66-33.5,9.99-52.44,9.99s-36.36-3.33-52.28-9.99
	c-15.34-6.29-29.33-15.46-41.22-27.02c-11.6-11.38-20.79-24.98-27.02-39.99c-6.49-15.62-9.78-32.38-9.65-49.29v-0.7
	C5.05,110.04,8.39,93.27,15,77.68C27.95,46.88,52.63,22.52,83.58,9.97c16.02-6.66,33.5-9.99,52.44-9.99s36.36,3.33,52.28,9.99
	c15.33,6.3,29.32,15.47,41.22,27.02c11.6,11.38,20.79,24.98,27.02,39.99c6.49,15.62,9.77,32.38,9.65,49.29v0.71
	C266.3,143.9,262.96,160.67,256.37,176.26z M209.68,126.97c0.06-10.19-1.78-20.31-5.44-29.82c-6.99-18.43-21.08-33.28-39.12-41.22
	c-9.39-4.15-19.55-6.24-29.81-6.14c-10.3-0.14-20.5,1.9-29.96,5.97c-8.79,3.82-16.67,9.43-23.15,16.49
	c-6.5,7.11-11.61,15.37-15.09,24.35c-3.66,9.45-5.51,19.51-5.43,29.65v0.71c-0.06,10.19,1.78,20.3,5.43,29.81
	c7,18.36,21.01,33.19,38.94,41.22c9.43,4.18,19.65,6.28,29.96,6.14c10.25,0.1,20.4-1.93,29.82-5.97c8.85-3.79,16.79-9.41,23.3-16.49
	c6.51-7.1,11.64-15.35,15.14-24.32c3.66-9.46,5.5-19.53,5.41-29.68V126.97z"/>
<path class="st0" d="M405.12,249.74v-26.88c-3.07,4.04-6.41,7.88-9.99,11.48c-3.66,3.68-7.72,6.94-12.1,9.72
	c-4.58,2.89-9.54,5.15-14.73,6.72c-5.92,1.73-12.07,2.57-18.24,2.5c-20.34,0-36.06-6.2-47.16-18.59
	c-11.1-12.4-16.65-29.47-16.65-51.22V61.71h53.27v104.65c0,12.6,2.81,22.11,8.42,28.52c5.62,6.41,13.57,9.62,23.85,9.62
	c10.3,0,18.43-3.21,24.39-9.62c5.96-6.41,8.94-15.92,8.95-28.52V61.71h53.33v188.03H405.12z"/>
<path class="st0" d="M595.61,113.99c-17.76,0-31.73,5.38-41.92,16.14c-10.19,10.76-15.28,27.48-15.25,50.17v69.44H485.1V61.71h53.33
	v37.89c5.38-12.86,12.74-23.15,22.1-30.88c9.36-7.72,21.99-11.23,37.89-10.52v55.76L595.61,113.99z"/>
<path class="st0" d="M202.69,384.16c-4.94,10.5-12.19,19.75-21.22,27.04c-9.37,7.44-20.09,12.98-31.58,16.31
	c-12.59,3.7-25.65,5.53-38.77,5.43H70.07v73.68H16.05v-245.6h100.33c14.74,0,27.9,2.05,39.48,6.14c11.57,4.09,21.4,9.88,29.46,17.36
	c8.07,7.49,14.42,16.65,18.59,26.84c4.33,10.41,6.49,21.93,6.49,34.56v0.7C210.41,360.89,207.84,373.4,202.69,384.16z
	 M155.68,346.98c0-12.16-3.92-21.4-11.75-27.72c-7.83-6.32-18.54-9.48-32.1-9.47H70.07v75.07h42.81c13.56,0,24.09-3.57,31.58-10.7
	c7.49-7.13,11.23-15.96,11.22-26.48V346.98z"/>
<path class="st0" d="M398.98,424.52c-0.12,1.88-0.29,4.09-0.52,6.66H267.6c2.57,12.16,7.9,21.33,15.96,27.53
	c8.07,6.2,18.06,9.3,29.96,9.3c8.88,0,16.83-1.52,23.86-4.56c7.03-3.04,14.28-7.95,21.75-14.73l30.52,27.02
	c-8.73,10.87-19.75,19.69-32.28,25.8c-12.61,6.18-27.44,9.27-44.49,9.28c-13.36,0.12-26.63-2.26-39.12-7.02
	c-11.67-4.43-22.3-11.24-31.22-19.98c-8.84-8.75-15.82-19.19-20.52-30.7c-4.91-11.81-7.37-24.97-7.37-39.47v-0.7
	c-0.07-12.94,2.25-25.79,6.84-37.89c4.33-11.54,10.82-22.13,19.14-31.22c8.24-8.93,18.21-16.09,29.3-21.05
	c11.34-5.14,23.91-7.72,37.71-7.72c15.66,0,29.23,2.81,40.69,8.42c11.1,5.32,20.87,13.06,28.6,22.63
	c7.68,9.67,13.38,20.75,16.78,32.62c3.65,12.48,5.49,25.42,5.44,38.42v0.7C399.16,420.42,399.09,422.64,398.98,424.52z
	 M334.61,368.91c-6.79-7.37-15.8-11.05-27.02-11.05c-11.22,0-20.27,3.63-27.17,10.9c-6.92,7.21-11.43,16.92-13.53,29.13h80.34
	C345.59,385.94,341.39,376.28,334.61,368.91z"/>
<path class="st0" d="M604.39,451c-5.04,11.65-12.31,22.2-21.41,31.05c-9.31,9.02-20.26,16.16-32.27,21.05
	c-26.04,10.23-54.97,10.29-81.05,0.17c-11.95-4.74-22.85-11.77-32.09-20.7c-9.03-8.8-16.24-19.29-21.22-30.88
	c-5.2-12.01-7.84-24.97-7.75-38.06v-0.7c-0.1-13.09,2.53-26.05,7.72-38.07c5.03-11.66,12.3-22.22,21.41-31.08
	c9.31-9.02,20.27-16.16,32.28-21.05c12.4-5.14,25.96-7.72,40.69-7.72c13.81-0.13,27.52,2.44,40.35,7.55
	c11.95,4.74,22.85,11.77,32.1,20.7c9.02,8.8,16.23,19.29,21.22,30.87c5.18,12.01,7.81,24.98,7.72,38.06v0.71
	C612.2,426,609.57,438.97,604.39,451z M559.44,412.94c0.04-6.77-1.15-13.48-3.5-19.83c-4.61-12.37-13.95-22.4-25.96-27.89
	c-6.27-2.84-13.09-4.28-19.98-4.21c-7.05-0.13-14.05,1.24-20.52,4.04c-5.81,2.58-11.01,6.34-15.26,11.05
	c-4.25,4.76-7.53,10.3-9.65,16.31c-2.25,6.36-3.38,13.07-3.33,19.82v0.71c-0.05,6.76,1.14,13.48,3.5,19.82
	c4.63,12.31,13.89,22.32,25.8,27.89c6.33,2.88,13.22,4.32,20.17,4.21c7.05,0.14,14.05-1.24,20.52-4.04
	c5.81-2.57,11.01-6.33,15.26-11.04c4.25-4.75,7.53-10.3,9.65-16.31c2.25-6.37,3.38-13.07,3.33-19.83L559.44,412.94z"/>
<path class="st0" d="M819.96,454.48c-4.79,12.05-11.11,22.22-18.94,30.52c-7.6,8.14-16.88,14.55-27.19,18.77
	c-10.25,4.21-21.23,6.37-32.31,6.34c-14.27,0-26.02-2.77-35.26-8.32c-8.77-5.19-16.64-11.77-23.3-19.49v80.47h-53.32V318.56h53.33
	v26.78c6.43-8.7,14.47-16.09,23.68-21.76c9.24-5.69,20.87-8.53,34.91-8.53c10.95-0.01,21.8,2.14,31.93,6.32
	c10.35,4.25,19.68,10.65,27.37,18.77c7.95,8.32,14.33,18.5,19.14,30.52c4.81,12.02,7.21,25.9,7.19,41.62v0.71
	C827.16,428.63,824.76,442.46,819.96,454.48z M773.83,412.2c0.09-7.29-1.16-14.53-3.68-21.37c-2.24-6.12-5.63-11.75-9.99-16.6
	c-4.08-4.49-9.03-8.1-14.57-10.6c-11.29-4.95-24.14-4.95-35.43,0c-5.51,2.47-10.43,6.09-14.42,10.62c-4.27,4.88-7.6,10.51-9.83,16.6
	c-2.52,6.84-3.76,14.08-3.68,21.37v0.71c-0.09,7.29,1.16,14.53,3.68,21.37c2.23,6.09,5.57,11.71,9.83,16.6
	c3.98,4.52,8.89,8.13,14.38,10.6c11.29,4.94,24.14,4.94,35.43,0c5.53-2.5,10.49-6.1,14.57-10.6c4.33-4.8,7.72-10.37,9.99-16.42
	c2.55-6.89,3.79-14.2,3.68-21.55L773.83,412.2z"/>
<path class="st0" d="M847.85,506.6V250.5h53.33V506.6H847.85z"/>
<path class="st0" d="M1105.53,424.52c-0.12,1.88-0.29,4.09-0.52,6.66H974.15c2.57,12.16,7.89,21.33,15.96,27.53
	c8.07,6.2,18.06,9.3,29.96,9.3c8.18,0.14,16.3-1.41,23.85-4.56c7.01-3.03,14.26-7.94,21.75-14.73l30.53,27.02
	c-8.73,10.87-19.75,19.68-32.28,25.8c-12.63,6.19-27.49,9.29-44.56,9.3c-13.36,0.12-26.63-2.26-39.12-7.02
	c-11.67-4.43-22.3-11.24-31.22-19.98c-8.84-8.75-15.82-19.19-20.52-30.7c-4.91-11.81-7.37-24.97-7.37-39.47v-0.7
	c-0.07-12.94,2.25-25.79,6.84-37.89c4.31-11.56,10.8-22.18,19.12-31.29c8.24-8.93,18.21-16.09,29.3-21.05
	c11.34-5.14,23.91-7.72,37.71-7.72c15.66,0,29.23,2.81,40.7,8.42c11.09,5.32,20.86,13.06,28.59,22.63
	c7.71,9.68,13.43,20.78,16.85,32.68c3.66,12.48,5.49,25.42,5.44,38.42v0.7C1105.71,420.42,1105.64,422.64,1105.53,424.52z
	 M1041.15,368.91c-6.79-7.37-15.8-11.05-27.02-11.05c-11.22,0-20.28,3.63-27.18,10.9c-6.9,7.25-11.41,16.96-13.51,29.13h80.34
	C1052.14,385.94,1047.93,376.28,1041.15,368.91z"/>
<text transform="matrix(1 0 0 1 624.4382 33.2152)" class="st1 st2 st3"> </text>
<text transform="matrix(1 0 0 1 624.4382 55.2543)" class="st1 st2 st3"> </text>
<text transform="matrix(1 0 0 1 624.4382 77.2938)" class="st4"><tspan x="0" y="0" class="st1 st2 st3">We are the engaging disruptors.</tspan><tspan x="0" y="26.9" class="st1 st2 st3">The team that does things differently.</tspan><tspan x="0" y="53.79" class="st1 st2 st3">Think of us as individuals on our own </tspan><tspan x="0" y="80.69" class="st1 st2 st3">journey sharing the same train </tspan><tspan x="0" y="107.59" class="st1 st2 st3">compartment for the moment.</tspan><tspan x="0" y="134.48" class="st1 st2 st3">While we are here together,</tspan><tspan x="0" y="161.38" class="st1 st2 st3">we are trying to shake, rattle and roll.</tspan></text>
<text transform="matrix(1 0 0 1 624.4382 99.3334)" class="st1 st2 st3"> </text>
<text transform="matrix(1 0 0 1 624.4382 121.3729)" class="st1 st2 st3"> </text>
<text transform="matrix(1 0 0 1 624.4382 165.4515)" class="st1 st2 st3"> </text>
</svg>
