<svg id="Layer_1" data-name="Layer 1" xmlns="http://www.w3.org/2000/svg" xmlns:xlink="http://www.w3.org/1999/xlink" viewBox="0 0 1440 1054.45"><defs><style>.cls-1{fill:none;}.cls-2{clip-path:url(#clip-path);}.cls-3{fill:#ffe500;}</style><clipPath id="clip-path"><rect class="cls-1" x="60.24" y="66.83" width="1319.51" height="920.79"/></clipPath></defs><title>stategy</title><g class="cls-2"><path class="cls-3" d="M792,195.31c-17.58-2.95-17.6-2.86-21.3-20.22-.26-1.22-.58-2.43-.83-3.66l-9.75-47.66c-24.6,24.2-48.67,47.91-72.81,71.56-2.23,2.18-2.34,4.68-2.33,7.44,0,16.08-.16,32.16.12,48.23a13.8,13.8,0,0,1-4.57,10.92Q578.65,363.8,477,465.91c-3.13,3.15-5.73,4-10.31,2.84-29.54-7.42-56,18.87-48.25,47.68,5.78,21.59,27.14,34.11,48.5,28.4,21.12-5.64,33.45-27.56,27.29-49.05-1.22-4.25-.95-7,2.41-10.33Q598,384.35,699,282.93a12.52,12.52,0,0,1,9.88-4c16.91.18,33.82-.1,50.73.18,5,.09,8.57-1.21,12.07-4.84,11.59-12,23.48-23.77,35.36-35.5,11.26-11.12,22.65-22.1,34.78-33.93-3.08-.89-4.59-1.46-6.14-1.74C821.08,200.45,806.54,197.76,792,195.31Z"/><path class="cls-3" d="M459.53,352.39c24.57-.11,48,5.07,70,16.38,2.64,1.36,4.74,2.66,7.62-.26,14.38-14.56,29-28.92,43.58-43.23,2.33-2.28,1.85-3.51-.41-5.31a128.31,128.31,0,0,0-26.94-17c-48.31-21.82-98.6-23-148.81-10.31C291.12,321.4,221,433.69,243.87,548.16c21.24,106.05,114.81,177.65,218.19,176.28,5.83-.19,14.57-.14,23.31-1.32,67.72-9.13,120.55-42.26,157.89-99.25,27.44-41.9,38.29-88.33,34-138.3a233.49,233.49,0,0,0-30-97.19c-2.08-3.65-3.24-4.33-6.54-.92q-20.7,21.36-42,42.12c-2.92,2.86-3.16,5-1.45,8.55,14.38,29.92,18.31,61.31,12.2,93.88-14.87,79.23-91,136-175.79,120.06-81-15.18-133-89.31-121.43-171.09C322.47,408.48,386.24,352.72,459.53,352.39Z"/><path class="cls-3" d="M777.51,317.58c-2.84-4.79-5.93-7-11.84-6.78a358.39,358.39,0,0,1-36.94,0c-9.27-.55-16.28,1.72-22.42,9-3.65,4.35-4.68,6.71-1.1,11.9,48.23,69.94,64.69,147.09,49.11,230.38-13,69.75-47.35,128.08-101.93,173.48-72.83,60.59-156.79,82.38-249.82,65.62-69.14-12.46-127.1-46.33-172.51-100C169.85,630,147,547.49,161.44,455.61c11.45-72.84,46.08-133.86,102.77-181.12C339.8,211.47,426.67,190.56,523,210c41.05,8.3,78.3,25.74,112.27,50.2,1.46,1,2.65,2.9,4.8,2.57,3.22-.51,13.1-13.45,13.1-17.1,0-15.45-.15-30.91.12-46.36.07-4.07-1.44-6.56-4.47-8.89a183.44,183.44,0,0,0-32.38-20.12c-50.7-24.36-104.94-31.86-160.39-32.67-7.51,0-15-.3-22.51.09-7.69.39-15.37,1.29-23,2.26-76.65,9.76-144.24,40.21-200.6,92.76C116.35,320,77.22,428.48,92.43,555.37c9.37,78.16,42.08,146.75,96.78,203.32C279.92,852.51,391,890.16,519.85,869.22,623.59,852.35,705.22,798,763.59,710.81,825.46,618.45,839.34,517,814.27,409.6A323.78,323.78,0,0,0,777.51,317.58Z"/><path class="cls-3" d="M-46.57-224.52V1189H1932.26V-224.52ZM444.64,1003.8c-266.15-7.17-491-228-486.92-509.6C-38.29,222.06,186.35-3.31,467.41,1,741.67,5.23,962,231,960.28,502.55,962.32,778,732.54,1011.55,444.64,1003.8Z"/></g></svg>