<?xml version="1.0" encoding="UTF-8"?><svg id="a" xmlns="http://www.w3.org/2000/svg" viewBox="0 0 960 327"><path id="b" d="M7.41,0h62.35c36.41,0,58.42,21.58,58.42,52.76v.44c0,35.32-27.47,53.63-61.69,53.63h-25.51v45.78H7.41V0Zm60.17,76.95c16.79,0,26.6-10.03,26.6-23.11v-.44c0-15.04-10.46-23.11-27.25-23.11h-25.94v46.65h26.6Z" fill="#fff"/><path id="c" d="M135.81,111.4V35.75h33.14V100.94c0,15.7,7.41,23.76,20.06,23.76s20.71-8.07,20.71-23.76V35.75h33.14v116.85h-33.14v-16.57c-7.63,9.81-17.44,18.75-34.23,18.75-25.07,0-39.68-16.57-39.68-43.38Z" fill="#fff"/><path id="d" d="M259.64,35.75h33.14v23.54c6.76-16.13,17.66-26.6,37.28-25.72v34.66h-1.74c-22.02,0-35.53,13.3-35.53,41.2v43.16h-33.14V35.75Z" fill="#fff"/><path id="e" d="M337.68,35.75h33.14v16.79c8.07-10.9,19.18-18.97,36.41-18.97,27.25,0,53.19,21.36,53.19,60.39v.44c0,39.02-25.51,60.39-53.19,60.39-17.66,0-28.56-8.07-36.41-17.44v50.14h-33.14V35.75Zm89.6,58.64v-.44c0-19.4-13.08-32.26-28.56-32.26s-28.34,12.86-28.34,32.26v.44c0,19.4,12.86,32.26,28.34,32.26s28.56-12.64,28.56-32.26Z" fill="#fff"/><path id="f" d="M466.3,94.83v-.44c0-33.57,27.03-60.82,63.44-60.82s63,26.81,63,60.39v.44c0,33.57-27.03,60.82-63.44,60.82s-63-26.81-63-60.39Zm93.74,0v-.44c0-17.22-12.43-32.26-30.74-32.26s-30.3,14.61-30.3,31.83v.44c0,17.22,12.43,32.26,30.74,32.26s30.3-14.61,30.3-31.83Z" fill="#fff"/><path id="g" d="M594.7,137.12l14.17-21.8c12.64,9.16,25.94,13.95,36.84,13.95,9.59,0,13.95-3.49,13.95-8.72v-.44c0-7.19-11.34-9.59-24.2-13.52-16.35-4.8-34.88-12.43-34.88-35.1v-.44c0-23.76,19.18-37.06,42.73-37.06,14.82,0,30.96,5.01,43.6,13.52l-12.64,22.89c-11.55-6.76-23.11-10.9-31.61-10.9s-12.21,3.49-12.21,8.07v.44c0,6.54,11.12,9.59,23.76,13.95,16.35,5.45,35.32,13.3,35.32,34.66v.44c0,25.94-19.4,37.71-44.69,37.71-16.35,0-34.66-5.45-50.14-17.66Z" fill="#fff"/><path id="h" d="M694.76,94.83v-.44c0-33.35,23.76-60.82,57.77-60.82,39.02,0,56.9,30.3,56.9,63.44,0,2.62-.22,5.67-.44,8.72h-81.32c3.27,15.04,13.73,22.89,28.56,22.89,11.12,0,19.18-3.49,28.34-11.99l18.97,16.79c-10.9,13.52-26.6,21.8-47.74,21.8-35.1,0-61.04-24.63-61.04-60.39Zm82.4-9.81c-1.96-14.82-10.68-24.85-24.63-24.85s-22.67,9.81-25.29,24.85h49.92Z" fill="#fff"/><path id="i" d="M0,240.67H67.15v31.83H0v-31.83Z" fill="#ffe400"/><path id="j" d="M74.77,265.96v-.44c0-39.02,25.51-60.39,53.19-60.39,17.66,0,28.56,8.07,36.41,17.44v-57.55h33.14v159.14h-33.14v-16.79c-8.07,10.9-19.18,18.97-36.41,18.97-27.25,0-53.19-21.36-53.19-60.39Zm90.03,0v-.44c0-19.4-12.86-32.26-28.34-32.26s-28.56,12.64-28.56,32.26v.44c0,19.4,13.08,32.26,28.56,32.26s28.34-12.86,28.34-32.26Z" fill="#ffe400"/><path id="k" d="M214.29,207.32h33.14v23.54c6.76-16.13,17.66-26.6,37.28-25.72v34.66h-1.74c-22.02,0-35.53,13.3-35.53,41.2v43.16h-33.14v-116.85Z" fill="#ffe400"/><path id="l" d="M292.99,165.03h34.88v29.43h-34.88v-29.43Zm.87,42.29h33.14v116.85h-33.14v-116.85Z" fill="#ffe400"/><path id="m" d="M334.84,207.32h35.1l26.16,78.26,26.38-78.26h34.44l-46,117.72h-30.08l-46-117.72Z" fill="#ffe400"/><path id="n" d="M457.57,266.4v-.44c0-33.35,23.76-60.82,57.77-60.82,39.02,0,56.9,30.3,56.9,63.44,0,2.62-.22,5.67-.44,8.72h-81.32c3.27,15.04,13.73,22.89,28.56,22.89,11.12,0,19.18-3.49,28.34-11.99l18.97,16.79c-10.9,13.52-26.6,21.8-47.74,21.8-35.1,0-61.04-24.63-61.04-60.39Zm82.4-9.81c-1.96-14.82-10.68-24.85-24.63-24.85s-22.67,9.81-25.29,24.85h49.92Z" fill="#ffe400"/><path id="o" d="M584.01,207.32h33.14v16.57c7.63-9.81,17.44-18.75,34.23-18.75,25.07,0,39.68,16.57,39.68,43.38v75.65h-33.14v-65.18c0-15.7-7.41-23.76-20.06-23.76s-20.71,8.07-20.71,23.76v65.18h-33.14v-116.85Z" fill="#ffe400"/></svg>